<?xml version="1.0" encoding="UTF-8" standalone="no"?>
<svg
   version="1.1"
   id="Layer_1"
   x="0px"
   y="0px"
   width="100%"
   viewBox="0 0 1000 1000"
   enable-background="new 0 0 1000 1000"
   xml:space="preserve"
   sodipodi:docname="quartologo.svg"
   inkscape:version="1.4.2 (ebf0e940, 2025-05-08)"
   xmlns:inkscape="http://www.inkscape.org/namespaces/inkscape"
   xmlns:sodipodi="http://sodipodi.sourceforge.net/DTD/sodipodi-0.dtd"
   xmlns="http://www.w3.org/2000/svg"
   xmlns:svg="http://www.w3.org/2000/svg"><defs
   id="defs131" /><sodipodi:namedview
   id="namedview131"
   pagecolor="#ffffff"
   bordercolor="#000000"
   borderopacity="0.25"
   inkscape:showpageshadow="2"
   inkscape:pageopacity="0.0"
   inkscape:pagecheckerboard="0"
   inkscape:deskcolor="#d1d1d1"
   inkscape:zoom="0.26958317"
   inkscape:cx="936.63119"
   inkscape:cy="561.97871"
   inkscape:window-width="1448"
   inkscape:window-height="678"
   inkscape:window-x="0"
   inkscape:window-y="38"
   inkscape:window-maximized="0"
   inkscape:current-layer="Layer_1" />

<path
   fill="#74a9db"
   opacity="1"
   stroke="none"
   d="m 595.34863,17.935152 c 0.40589,0.145287 0.81171,0.290573 1.52161,0.940023 2.59064,1.430497 4.87726,2.356831 7.52209,3.277916 0.81971,-0.118946 1.28119,-0.232641 1.94788,-0.279041 0.2052,0.06729 0.60467,0.231699 0.68567,0.500462 1.10858,0.212438 2.13611,0.156116 3.53882,0.104904 2.79028,0.434309 5.2055,0.863508 7.6394,1.651237 1.65845,3.408894 4.00928,3.937075 7.32886,2.335057 1.07434,0.165394 1.78558,0.312877 2.70868,0.569286 0.68378,0.10467 1.1557,0.100416 1.87274,0.105801 0.24518,0.0096 0.7334,0.0584 0.89563,0.352544 4.09692,2.719046 7.97937,5.345786 13.28406,3.654824 0.68451,0.0951 1.07507,0.15357 1.63476,0.497259 6.86035,2.825466 13.54944,5.371494 20.25397,7.876194 0.18945,0.07079 0.54358,-0.299187 1.172,-0.399578 1.05914,0.156914 1.76721,0.249752 2.63751,0.623062 1.66425,1.315792 3.04456,2.634071 4.68799,3.340454 10.55499,4.536854 21.354,8.548481 31.7135,13.486622 12.61621,6.013924 24.84869,12.82893 37.30908,19.175754 4.77356,2.431443 9.7182,4.527077 14.63306,6.812935 0.0482,0.03722 0.13232,0.125305 0.0899,0.477875 4.24152,2.768715 8.52539,5.18486 12.84223,7.627503 0.0328,0.0265 0.0893,0.08922 0.0697,0.443298 3.42645,3.616768 6.33752,7.776459 11.95544,7.503799 0.0434,0.03364 0.11811,0.114182 0.0819,0.465226 5.83399,4.558212 11.7041,8.765392 17.73108,13.152812 0.36176,0.42439 0.56922,0.66626 0.87573,1.22095 1.66645,1.77289 3.1117,3.40169 4.83075,4.65511 4.43939,3.23691 8.9997,6.30804 13.71283,9.62314 0.4477,0.43678 0.69434,0.6958 0.88611,1.30088 1.83264,1.87967 3.72022,3.41327 5.59802,4.95771 -0.01,0.0108 0.0118,-0.009 0.0737,0.30499 0.77039,0.6514 1.47876,0.9892 2.38044,1.50296 0.43872,0.4232 0.68426,0.67044 0.90185,1.26454 1.5116,1.55937 3.05109,2.77187 4.73975,4.16875 0.35211,0.4272 0.56799,0.65802 0.85919,1.20877 3.79614,4.25302 7.41235,8.29523 11.29468,12.06326 4.43957,4.30908 9.11572,8.37444 13.71496,12.52191 0.0258,-0.0237 -0.0221,0.0274 0.0261,0.37061 1.79882,1.95251 3.54943,3.5618 5.50183,5.34884 0.44769,0.43844 0.69354,0.69913 0.88659,1.31553 5.52283,7.46752 11.05884,14.61137 16.72388,21.65139 0.72174,0.89691 2.11719,1.25173 3.41907,2.08347 0.94354,1.24786 1.66864,2.26999 2.44879,3.63914 3.15411,4.278 6.25311,8.20896 9.52673,12.31615 0.40644,0.41374 0.61408,0.67079 0.74701,1.32468 0.64667,1.84062 1.18982,3.40414 2.06574,4.75125 6.14264,9.44682 12.71997,18.63255 18.44879,28.32129 6.88049,11.63659 13.18591,23.62158 19.48816,35.5885 3.53589,6.71405 6.68915,13.64004 9.77478,20.57733 2.12311,4.77335 3.81134,9.73901 5.73547,14.60227 2.34741,5.93298 4.62238,11.89901 7.15912,17.75088 1.28143,2.95624 3.0708,5.69232 4.68939,8.83182 0.0944,0.71499 0.13001,1.1261 -0.0192,1.85898 0.39081,2.95709 0.87787,5.61611 1.57483,8.21896 0.42175,1.57507 1.37274,3.01645 1.73437,4.59824 1.60822,7.03439 3.08051,14.09982 4.63251,21.14724 0.14056,0.6384 0.56592,1.20975 0.74725,1.84424 0.98157,3.43595 2.01203,6.86142 2.86133,10.33075 0.74744,3.05368 1.24481,6.16766 1.91547,9.2413 0.66003,3.0249 1.55993,6.0054 2.07336,9.05283 1.5874,9.42099 3.03021,18.8663 4.58301,28.2933 0.0644,0.39106 0.67071,0.69287 1.06012,1.35236 0.042,0.73999 0.0483,1.16391 -0.16394,1.93167 0.40655,7.91125 0.72882,15.5217 1.79584,23.02625 0.46966,3.30358 0.13061,4.7099 -3.35321,4.80554 -6.98261,0.19156 -13.96125,0.75885 -20.94165,0.76123 -137.47065,0.0469 -274.94123,0.0362 -412.41187,0.0239 -2.32806,-2.1e-4 -4.6648,-0.33288 -6.98242,-0.2149 -4.59363,0.23392 -9.17676,0.6745 -14.07971,1.01865 -0.73176,0.0365 -1.14795,0.084 -1.65577,-0.036 -0.0916,-0.16763 -0.23571,-0.52151 -0.15057,-0.97796 0.38483,-5.26554 0.94495,-10.07452 0.94647,-14.8837 0.0466,-142.53821 0.0397,-285.07642 0.0225,-427.614609 -3.6e-4,-2.656464 -0.34985,-5.314472 -0.31604,-7.968956 0.0439,-3.451107 0.3089,-6.899399 0.75556,-10.415621 1.4317,0.0012 2.58655,0.06922 3.86975,0.4699 5.41101,3.297916 11.00268,4.097738 17.31232,2.741175 1.20489,-0.138721 2.00164,-0.293007 3.24945,-0.405873 5.10547,0.06406 9.75988,0.08669 14.4143,0.109324 1.33905,0.145594 2.6781,0.291189 4.19617,0.635777 0.14502,0.410789 0.11096,0.622583 0.0492,1.096385 2.23786,2.271258 4.48975,4.343794 8.08423,1.970904 1.10364,0.195955 1.83429,0.358019 2.65906,0.810596 1.43219,0.254479 2.7702,0.218441 4.48792,0.176022 1.84729,-0.191015 3.31475,-0.375647 4.78222,-0.560282 z"
   id="path2"
   style="display:inline;fill:#000000" />
<path
   fill="#74a9db"
   opacity="1"
   stroke="none"
   d="m 972.32727,644.08752 c 0.003,0.43549 0.006,0.87104 -0.47296,1.67048 -3.69116,3.08276 -5.87567,6.17242 -4.2124,10.90704 -0.0381,0.58313 -0.0676,0.91595 -0.40656,1.45172 -3.08032,6.45581 -6.00922,12.64447 -8.58252,18.97766 -3.37298,8.30133 -6.41015,16.73847 -9.70459,25.07257 -1.39422,3.52686 -2.9212,7.0199 -4.65875,10.38849 -3.60822,6.99518 -7.38782,13.90216 -11.11505,20.83557 -3.11682,5.79804 -6.03113,11.72095 -9.44403,17.34021 -5.12811,8.443 -10.42346,16.79889 -15.99848,24.95197 -5.97693,8.74078 -12.41198,17.16681 -18.54602,25.802 -3.69531,5.20203 -7.19787,10.54108 -10.81921,15.84418 -0.032,0.0257 -0.11365,0.0218 -0.46576,-0.013 -2.4306,2.61395 -4.50909,5.26269 -6.58893,7.94507 -10e-4,0.0336 -0.056,0.0729 -0.40417,0.072 -1.07935,0.35919 -1.97474,0.55603 -2.51764,1.10284 -12.93842,13.03094 -25.86109,26.0777 -38.71875,39.18811 -1.65198,1.68439 -2.93128,3.73438 -4.39191,5.64075 -0.009,0.0258 -0.063,0.0286 -0.43347,-0.0253 -1.4859,0.55688 -2.72119,1.01837 -3.69763,1.80231 -7.84815,6.30053 -15.39002,13.0169 -23.52558,18.91656 -10.64941,7.72259 -21.71582,14.8753 -32.67987,22.15711 -7.50225,4.9826 -14.80658,10.40917 -22.78186,14.50244 -15.22003,7.81134 -30.84601,14.83349 -46.32629,22.13482 -3.99713,1.8852 -8.03748,3.69306 -12.1322,5.35315 -5.31501,2.15497 -10.76892,3.97559 -16.03864,6.2309 -3.40326,1.45654 -6.58325,3.43451 -10.16193,5.26245 -0.70703,0.14362 -1.11547,0.20361 -1.82788,0.0687 -4.54553,-1.30285 -7.49566,0.62122 -10.16839,3.95044 -0.68964,0.10969 -1.08704,0.15143 -1.82111,0.001 -3.7984,0.5094 -7.27185,1.15906 -10.71679,1.93537 -1.60132,0.36078 -3.11738,1.11651 -4.72327,1.43737 -8.53522,1.70545 -17.08844,3.32099 -25.62976,4.99634 -0.80737,0.15833 -1.56281,0.56519 -2.36395,0.77393 -3.12561,0.81457 -6.23011,1.75879 -9.40021,2.33874 -2.60321,0.47614 -5.31403,0.34388 -7.93207,0.76282 -6.64258,1.06335 -13.22839,2.53253 -19.8952,3.38043 -8.39575,1.06769 -16.90247,1.33216 -25.26007,2.60694 -5.83399,0.88983 -5.94532,1.26153 -5.94513,-4.66193 0.004,-146.11823 0.0125,-292.23645 0.0259,-438.35468 6.1e-4,-6.72564 0.16125,-6.84014 7.70849,-6.84002 146.45148,0.003 292.90296,0.006 439.35443,0.008 1.99933,6e-5 3.99891,-0.0213 5.99787,0.007 2.91199,0.0408 3.97571,1.1958 3.66186,4.39166 -1.19659,12.18604 -0.7041,24.50018 -4.38842,36.47888 -1.67389,5.44233 -1.28333,11.49128 -2.18018,17.21009 -0.66248,4.22448 -1.92798,8.35205 -2.8634,12.53656 -1.61164,7.2102 -3.11756,14.44476 -4.81482,21.63446 -0.2912,1.23352 -1.77588,2.2456 -1.90308,3.44555 -0.29321,2.76551 -0.0909,5.58356 -0.0897,8.38031 z"
   id="path3"
   style="display:inline;fill:#000000" />
<path
   fill="#507293"
   opacity="1"
   stroke="none"
   d="m 468.19794,372.00034 c 0.003,31.82577 0.008,63.15151 0.0103,94.47723 7.4e-4,8.75308 -1.10949,9.93951 -9.64242,9.9397 -147.63074,0.003 -295.26151,-0.0295 -442.892151,0.0935 -5.037294,0.004 -6.679333,-1.98413 -6.334977,-6.42532 0.731951,-9.44007 1.528121,-18.87625 2.423299,-28.30213 0.424067,-4.46518 0.935605,-8.94039 1.75611,-13.34613 2.274473,-12.21283 4.619081,-24.41513 7.158487,-36.57513 1.588944,-7.6087 3.367041,-15.19275 5.450882,-22.67914 2.079332,-7.47018 4.594196,-14.82174 7.017387,-22.19269 1.544919,-4.69937 3.093533,-9.41101 4.948475,-13.99246 5.375306,-13.27624 10.56683,-26.64322 16.475396,-39.6824 5.452465,-12.03263 11.165569,-24.02133 17.805378,-35.42288 8.222152,-14.11869 17.25222,-27.79183 26.410827,-41.33448 14.260637,-21.0869 30.546917,-40.62027 48.487427,-58.62777 12.63411,-12.68132 26.13469,-24.53151 39.64854,-36.29301 9.09966,-7.91969 18.63889,-15.39918 28.45607,-22.411111 9.67215,-6.90834 19.87755,-13.083122 29.97068,-19.384864 7.99018,-4.988762 16.06106,-9.868485 24.29016,-14.447937 6.4779,-3.60492 13.19787,-6.792252 19.90793,-9.958203 8.20855,-3.872974 16.48895,-7.598175 24.79809,-11.251301 4.06531,-1.787323 8.19415,-3.490547 12.41822,-4.845356 14.63415,-4.693717 29.22586,-9.563356 44.01818,-13.707719 14.31433,-4.010443 28.72226,-7.964356 43.33512,-10.556029 15.50744,-2.750337 31.28305,-4.091821 46.98529,-5.590415 6.3247,-0.603622 7.09359,0.660147 7.09384,7.103343 0.004,118.304222 0.004,236.608432 0.003,355.412732 M 61.09008,286.63379 c -2.298374,4.55264 -4.725197,9.04611 -6.857689,13.67517 -1.988617,4.31674 -3.688926,8.76767 -5.471706,13.17749 -2.387669,5.90601 -4.822224,11.79556 -7.06921,17.75528 -2.0326,5.39111 -4.028996,10.80994 -5.697296,16.32065 -1.890442,6.24447 -3.268429,12.64291 -5.105606,18.90506 -2.168251,7.39062 -5.098423,14.59329 -6.773279,22.08423 -2.121718,9.48965 -3.203776,19.20727 -4.948639,28.7875 -0.912663,5.01099 -2.730357,9.88266 -3.358761,14.91474 -1.460812,11.69778 -2.402543,23.45956 -3.659283,35.18417 -0.31301,2.92026 0.258997,4.53293 3.655938,4.15195 2.473207,-0.27738 4.988843,-0.23545 7.485572,-0.23569 141.812389,-0.0131 283.624799,-0.0171 425.437179,-0.005 1.99255,1.8e-4 4.00009,0.10037 5.97497,0.35391 7.88278,1.01193 8.54114,0.45315 8.56058,-7.62674 0.004,-1.49979 0.004,-2.99954 0.004,-4.49933 5.5e-4,-146.14508 -7e-4,-292.29019 0.005,-438.435283 3.4e-4,-8.659098 0.0196,-8.708463 -8.33902,-7.384808 -12.26697,1.942564 -24.68545,1.591068 -37.00961,4.583501 -12.91574,3.136074 -26.27112,4.555374 -39.03025,8.762766 -5.88842,1.941732 -12.06564,2.989627 -18.02594,4.73616 -7.21347,2.113752 -14.38543,4.396391 -21.4808,6.87647 -4.96283,1.734677 -9.73041,4.019505 -14.6503,5.887165 -8.39731,3.187741 -16.9259,6.043881 -25.23993,9.430752 -4.38162,1.784931 -8.40414,4.43982 -12.6271,6.627995 -9.78965,5.072563 -19.80646,9.746223 -29.34912,15.244705 -9.7175,5.599213 -19.21204,11.65918 -28.38367,18.114845 -14.21913,10.008442 -28.6443,19.853232 -41.93782,31.011552 -13.45593,11.29467 -26.05315,23.70525 -38.26732,36.35981 -11.73566,12.15878 -22.68898,25.09532 -33.61367,38.00525 -5.97427,7.05993 -11.47576,14.57106 -16.652787,22.24161 -6.474983,9.59368 -12.692703,19.38977 -18.480431,29.41094 -6.607193,11.44005 -12.619117,23.2239 -19.094612,35.58306 z"
   id="path4"
   style="display:inline;fill:#000000" />
<path
   fill="#30475c"
   opacity="1"
   stroke="none"
   d="m 13.598539,568.23718 c -4.305773,-9.32031 -4.851612,-19.25073 -4.186696,-29.22766 0.111534,-1.67358 2.756057,-3.42175 4.564781,-4.63788 0.9273,-0.62347 2.594068,-0.1654 3.926647,-0.1654 146.794419,-0.002 293.588829,-0.003 440.383259,1.2e-4 8.55923,1.2e-4 9.84616,1.15387 10.23382,9.68616 0.18888,4.15728 0.0568,8.32959 0.0571,12.49505 0.0102,141.12928 0.0198,282.25849 0.0258,423.38776 5.8e-4,13.8042 -1.51218,15.13342 -15.09091,12.87244 -4.08475,-0.68012 -8.1048,-1.74872 -12.33716,-3.20697 -0.16446,-0.76514 -0.14627,-0.96271 0.33276,-1.10596 4.80637,0.22424 9.15198,0.39404 13.80472,0.81494 8.05695,2.00391 9.67151,0.77502 9.67154,-7.00024 3.7e-4,-145.42279 -0.005,-290.84565 -0.0153,-436.26844 -6.1e-4,-8.40612 -0.63449,-8.99548 -9.17593,-8.99517 -144.9231,0.005 -289.84616,0.008 -434.769249,0.0174 -1.664285,1.2e-4 -3.735905,-0.53705 -4.901218,0.24451 -1.944495,1.30395 -4.718954,3.52923 -4.649194,5.26642 0.196235,4.88696 1.663513,9.72277 2.640595,15.0213 0.180039,3.06646 0.349114,5.69049 0.343279,8.72827 -0.40281,0.96698 -0.630713,1.52014 -0.858614,2.07336 z"
   id="path5"
   style="display:inline;fill:#000000" />
<path
   fill="#5980A4"
   opacity="1.000000"
   stroke="none"
   d=" M972.571289,644.065552   C972.325989,641.290771 972.123718,638.472717 972.416931,635.707214   C972.544128,634.507263 974.028809,633.495178 974.320007,632.261658   C976.017273,625.071960 977.523193,617.837402 979.134827,610.627197   C980.070251,606.442688 981.335754,602.315125 981.998230,598.090637   C982.895081,592.371826 982.504517,586.322876 984.178406,580.880554   C987.862732,568.901855 987.370239,556.587708 988.566833,544.401672   C988.880676,541.205811 987.816956,540.050842 984.904968,540.010010   C982.906006,539.981995 980.906433,540.003357 978.907104,540.003296   C832.455627,540.000793 686.004150,539.998657 539.552673,539.995178   C532.005432,539.995056 531.844788,540.109558 531.844177,546.835205   C531.830688,692.953430 531.822449,839.071655 531.818237,985.189880   C531.818054,991.113342 531.929382,990.741638 537.763367,989.851807   C546.120972,988.577026 554.627686,988.312561 563.023438,987.244873   C569.690247,986.396973 576.276062,984.927795 582.918640,983.864441   C585.536682,983.445496 588.247498,983.577759 590.850708,983.101624   C594.020813,982.521667 597.125305,981.577454 600.250916,980.762878   C601.052063,980.554138 601.807495,980.147278 602.614868,979.988953   C611.156189,978.313599 619.709412,976.698059 628.244629,974.992615   C629.850525,974.671753 631.366577,973.916016 632.967896,973.555237   C636.412842,972.778931 639.886292,972.129272 643.404175,971.862671   C638.851074,973.960449 634.241882,975.623474 629.632690,977.286499   C629.253906,977.337463 628.875183,977.388428 627.924988,977.331177   C622.095215,978.440674 616.808105,979.548096 611.586792,980.908325   C606.689697,982.184143 601.862305,983.727356 597.004211,985.152893   C596.314453,985.208374 595.624634,985.263855 594.156860,985.202637   C591.559204,985.170105 589.718567,985.107056 587.923401,985.363342   C579.080078,986.625732 570.244751,987.945862 561.414429,989.297424   C552.943481,990.593933 544.482300,991.954041 536.016785,993.286133   C534.621521,993.279968 533.226196,993.273804 531.195862,992.932983   C529.754578,990.235901 528.244568,987.874023 528.242737,985.510925   C528.129211,839.385193 528.137207,693.259338 528.142029,547.133545   C528.142273,538.862488 529.046631,537.997437 537.347168,537.997803   C679.140869,538.003784 820.934570,538.009583 962.728271,538.014526   C970.392578,538.014771 978.060486,537.860107 985.719910,538.051331   C991.243042,538.189148 992.166931,539.828613 991.497559,545.276489   C990.693665,551.819458 990.318604,558.415222 989.757812,564.988098   C989.583618,567.396912 989.409424,569.805664 988.957764,572.897949   C987.696655,579.381226 986.713013,585.180969 985.729431,590.980774   C985.562744,592.737732 985.395996,594.494690 984.933044,596.903564   C983.638489,602.355042 982.640198,607.154541 981.641846,611.954102   C981.560425,612.327454 981.478943,612.700745 981.132996,613.519653   C980.844055,614.975891 980.819641,615.986511 980.795166,616.997131   C980.734924,617.674133 980.674622,618.351135 980.282349,619.541626   C979.119202,623.134583 978.287903,626.214172 977.456665,629.293762   C977.170898,630.893066 976.885071,632.492371 976.274048,634.567688   C975.095215,637.781372 974.241516,640.518982 973.387817,643.256592   C973.255493,643.561523 973.064636,643.823792 972.571289,644.065552  z"
   id="path6"
   style="fill:#000000" />
<path
   fill="#283B4C"
   opacity="1.000000"
   stroke="none"
   d=" M535.985474,11.028404   C534.830566,10.960441 533.675720,10.892473 531.840576,10.831059   C526.659668,11.468721 528.140076,15.027589 528.138977,17.526283   C528.077148,164.826050 528.083435,312.125854 528.082947,459.425629   C528.082947,462.091675 527.758972,464.811768 528.194031,467.404602   C528.480042,469.108276 529.860229,470.628296 530.750366,472.230560   C530.750366,472.230560 530.894470,472.584442 530.997131,473.067871   C531.757019,473.937805 532.414307,474.324371 533.506714,474.772156   C536.284973,474.793732 538.628113,474.754028 541.386108,474.809753   C543.209595,474.841400 544.618225,474.777618 546.490173,474.773254   C548.117981,474.871826 549.282471,474.945404 550.446899,474.945343   C693.974426,474.935150 837.502014,474.922241 981.029541,474.882690   C983.518494,474.882019 986.198242,475.064392 988.434937,474.221771   C990.174438,473.566498 992.709290,471.310028 992.577393,469.997742   C991.670044,460.972076 990.153809,452.007629 988.833496,443.023499   C988.827148,442.599609 988.820801,442.175690 988.914917,440.989441   C989.157837,437.764343 989.300232,435.301666 989.442627,432.838959   C990.716125,437.423492 992.654175,441.941956 993.117859,446.606964   C993.954041,455.018219 994.023499,463.514954 994.181030,471.980347   C994.259033,476.173340 991.927002,477.551575 987.689270,477.417603   C980.049194,477.176086 972.388733,477.691254 964.736816,477.692413   C827.406616,477.713135 690.076355,477.714355 552.746155,477.672943   C545.447449,477.670746 538.149902,477.208038 530.849854,477.052460   C527.544861,476.981995 526.015930,475.253754 525.737244,472.151764   C525.558838,470.165741 525.312927,468.174377 525.312561,466.185364   C525.285156,316.188782 525.278198,166.192215 525.274902,16.195639   C525.274719,9.049253 528.561523,7.004506 536.708008,9.622231   C536.506348,10.459019 536.245911,10.743709 535.985474,11.028404  z"
   id="path7"
   style="fill:#000000" />
<path
   fill="#2B3F52"
   opacity="1.000000"
   stroke="none"
   d=" M990.019409,564.832581   C990.318604,558.415222 990.693665,551.819458 991.497559,545.276489   C992.166931,539.828613 991.243042,538.189148 985.719910,538.051331   C978.060486,537.860107 970.392578,538.014771 962.728271,538.014526   C820.934570,538.009583 679.140869,538.003784 537.347168,537.997803   C529.046631,537.997437 528.142273,538.862488 528.142029,547.133545   C528.137207,693.259338 528.129211,839.385193 528.242737,985.510925   C528.244568,987.874023 529.754578,990.235901 530.777771,992.910034   C530.514954,993.461243 530.035156,993.700684 529.071594,993.763245   C528.050537,993.404297 527.513245,993.222229 526.975952,993.040161   C526.633362,990.942078 525.991638,988.844177 525.990906,986.745972   C525.939575,839.341858 525.935669,691.937744 525.966553,544.533630   C525.967041,542.068237 526.441406,539.602905 527.211182,536.900818   C530.205750,536.432495 532.683594,535.998840 535.161621,535.998169   C684.946045,535.958191 834.730530,535.947327 984.514954,535.995239   C987.297241,535.996155 990.079285,536.735535 992.861450,537.130310   C992.913513,542.781982 992.965576,548.433716 992.781555,554.843018   C992.080627,558.098816 991.615784,560.596924 991.150940,563.095032   C990.860962,563.622375 990.570984,564.149719 990.019409,564.832581  z"
   id="path8"
   style="fill:#000000" />
<path
   fill="#30475C"
   opacity="1.000000"
   stroke="none"
   d=" M305.194122,952.636719   C298.889587,954.042725 294.778198,949.073120 289.728516,947.032166   C281.800934,943.828125 274.185730,939.768555 266.671967,935.645386   C258.298492,931.050415 249.897842,926.402100 242.020126,921.027710   C225.186676,909.543518 208.243713,898.142822 192.149231,885.670898   C169.234055,867.913513 148.252655,847.956055 129.691727,825.598450   C120.701660,814.769409 111.435440,804.104980 103.282555,792.661865   C93.229553,778.551819 83.701561,764.006409 74.889519,749.092041   C67.203209,736.082886 60.597229,722.412354 53.941330,708.824646   C48.593067,697.906433 43.445190,686.846497 39.025288,675.530334   C35.193611,665.720337 32.526371,655.456665 29.310972,645.404236   C27.054750,638.350525 24.744066,631.314331 22.450806,624.272583   C22.296486,623.798706 21.999247,623.359253 21.911175,622.877686   C20.309912,614.121460 18.729496,605.361450 17.147139,596.601746   C16.704447,594.151062 16.196861,591.709351 15.845722,589.245483   C14.963844,583.057434 14.154354,576.859009 13.758298,570.604736   C15.519255,575.349426 16.837749,580.154297 18.182312,585.266479   C18.249105,585.982849 18.289837,586.391724 18.225571,587.200989   C18.414181,589.400330 18.707787,591.199341 19.030144,593.312988   C19.094908,594.047424 19.130922,594.467163 19.088730,595.293945   C20.059988,599.129211 21.109453,602.557312 22.199089,606.282104   C22.300632,606.973083 22.362005,607.367493 22.319515,608.093994   C22.450821,609.284485 22.685989,610.142700 22.952330,611.369446   C23.009426,612.476868 23.035353,613.215759 23.024902,614.316406   C23.883373,616.786865 24.778221,618.895508 25.780649,621.324036   C25.931314,622.091125 25.974398,622.538330 25.937468,623.331421   C26.114517,624.777832 26.371580,625.878418 26.786446,627.304077   C27.075119,628.338867 27.205990,629.048645 27.259178,630.151306   C28.468805,634.029602 29.756113,637.515137 31.080362,641.371704   C31.226841,642.731018 31.336380,643.719299 31.375891,645.079346   C32.571579,648.298584 33.837296,651.145996 35.148827,654.331299   C35.290859,655.344482 35.387081,656.019653 35.417458,657.077332   C37.948345,663.638794 40.545086,669.817810 43.195732,676.282410   C43.309650,676.950806 43.369656,677.333618 43.363754,678.100220   C45.940651,685.046021 48.264416,691.759583 51.294609,698.137512   C57.075195,710.304382 63.258614,722.279907 69.415894,734.620605   C70.045517,735.597046 70.534050,736.287781 71.042664,737.270020   C71.539719,738.136414 72.016693,738.711304 72.597977,739.597168   C72.882439,740.538757 73.062599,741.169312 73.228424,742.160645   C79.010704,751.763855 84.807343,761.006287 90.803101,770.520142   C92.584984,772.974792 94.167732,775.158142 95.811996,777.598938   C96.342949,778.355713 96.812401,778.854980 97.438019,779.660400   C98.773476,781.602966 99.952774,783.239502 101.148125,785.235596   C105.081871,790.754089 108.999565,795.913086 112.952545,801.039673   C112.987839,801.007324 112.929024,801.082458 112.982948,801.365356   C113.542809,802.186951 114.048752,802.725647 114.663528,803.450867   C114.772377,803.637390 114.994316,804.007812 115.046234,804.314819   C115.726822,805.087524 116.355492,805.553284 117.169647,806.255005   C117.913177,807.316772 118.471222,808.142639 119.062752,809.314941   C122.749130,813.756714 126.402016,817.852051 130.235229,822.186890   C130.971863,823.249573 131.528137,824.072754 132.196167,825.210388   C133.851196,827.036743 135.394501,828.548584 137.190186,830.273132   C139.266266,832.355347 141.089966,834.224854 142.955460,836.387939   C143.545486,837.196472 144.093704,837.711426 144.673569,838.261841   C144.705200,838.297363 144.774246,838.362732 144.873016,838.646912   C145.858093,839.704712 146.744385,840.478333 147.743439,841.412109   C147.856186,841.572266 148.086197,841.889343 148.184448,842.205261   C149.846176,844.015869 151.409653,845.510559 153.200317,847.235657   C154.872284,848.758911 156.317047,850.051819 157.859772,851.629761   C158.827728,852.703979 159.697739,853.493225 160.750854,854.482544   C161.204117,854.922668 161.474243,855.162781 161.850098,855.693848   C163.024429,856.944946 164.093048,857.905029 165.316498,858.974854   C165.471344,859.084595 165.786133,859.296814 165.891907,859.585815   C166.924377,860.639282 167.851074,861.403809 168.975708,862.404175   C170.129120,863.414124 171.084595,864.188232 172.079636,865.299255   C174.115143,867.395996 176.111069,869.155762 178.361084,871.073975   C179.439743,871.793945 180.264297,872.355530 181.115677,873.262573   C184.425491,876.074524 187.708496,878.541016 191.279175,881.169556   C194.676788,883.935730 197.786728,886.539795 200.978546,889.427612   C201.647293,890.187073 202.234177,890.662842 202.841965,891.139038   C202.862854,891.139526 202.864899,891.181274 202.981979,891.486145   C204.937149,892.943787 206.775238,894.096558 208.650406,895.286438   C208.687485,895.323608 208.769409,895.389282 208.887695,895.689087   C212.022018,897.974121 215.038040,899.959290 218.295288,902.176147   C220.249542,903.475525 221.962555,904.543213 223.815109,905.887207   C225.325836,907.086487 226.697052,908.009460 228.356201,909.082214   C230.010300,910.295227 231.376419,911.358459 232.909424,912.695496   C235.360413,914.334961 237.644516,915.700623 240.216293,917.176514   C240.887955,917.432495 241.271942,917.578369 241.814392,917.989258   C244.036469,919.438538 246.100067,920.622803 248.463165,921.885559   C249.490845,922.331787 250.219040,922.699524 251.017593,923.368652   C251.730042,924.110352 252.372116,924.550720 253.293060,925.096558   C253.943787,925.342957 254.315628,925.483765 254.864105,925.878906   C256.708923,927.075256 258.377045,928.017334 260.316895,929.089111   C260.955017,929.382446 261.321472,929.546082 261.890747,929.947876   C269.729187,934.125427 277.364777,938.064819 285.294220,942.119141   C286.390472,942.482483 287.192902,942.730774 288.170624,943.266724   C289.916718,944.350525 291.487518,945.146790 293.345764,946.062744   C294.419403,946.443909 295.205566,946.705383 296.209717,947.226685   C298.690521,948.562378 300.953369,949.638306 303.513062,950.761841   C304.207275,950.860901 304.604675,950.912292 305.034760,951.243164   C305.109680,951.894043 305.151886,952.265381 305.194122,952.636719  z"
   id="path9"
   style="fill:#000000" />
<path
   fill="#161D25"
   opacity="1.000000"
   stroke="none"
   d=" M992.815674,536.742920   C990.079285,536.735535 987.297241,535.996155 984.514954,535.995239   C834.730530,535.947327 684.946045,535.958191 535.161621,535.998169   C532.683594,535.998840 530.205750,536.432495 527.402771,536.576782   C528.948853,535.668152 530.768188,534.328857 532.702026,534.135559   C536.494751,533.756592 540.351135,534.011658 544.181213,534.011536   C690.891785,534.006470 837.602295,533.989258 984.312805,534.096313   C987.132385,534.098389 989.950928,535.569641 992.815674,536.742920  z"
   id="path10"
   style="fill:#000000" />
<path
   fill="#2B3F52"
   opacity="1.000000"
   stroke="none"
   d=" M630.070801,977.456055   C634.241882,975.623474 638.851074,973.960449 643.740845,972.054688   C644.418762,971.770203 644.816162,971.728455 645.882324,971.709351   C649.693359,970.442505 652.835754,969.152893 655.978149,967.863220   C656.386597,967.803223 656.795044,967.743225 657.879150,967.698059   C663.577637,966.100159 668.740112,964.823547 673.595642,962.807556   C685.199829,957.989624 696.833618,953.183105 708.134216,947.708740   C722.990967,940.511780 737.995789,933.434753 752.101685,924.921997   C768.659058,914.930054 784.569336,903.798645 800.272217,892.484131   C809.095642,886.126648 816.934204,878.402283 825.216492,871.293762   C825.216492,871.293762 825.270813,871.291016 825.603149,871.183350   C828.354248,869.063232 830.837952,867.123230 833.180054,865.025146   C840.691528,858.296143 848.150574,851.508789 855.629822,844.743896   C854.850342,846.111694 854.356445,847.794434 853.247925,848.799255   C839.497925,861.262756 825.980225,874.013306 811.739624,885.895264   C800.447754,895.317017 788.607300,904.195984 776.342468,912.305725   C763.274292,920.946655 749.590637,928.707886 735.859741,936.280212   C723.469177,943.113403 710.781616,949.448547 697.973999,955.469299   C690.274536,959.088745 682.115295,961.741577 674.124146,964.725586   C667.039062,967.371277 660.071533,970.713501 652.738281,972.207275   C645.235474,973.735657 638.689392,979.140686 630.070801,977.456055  z"
   id="path11"
   style="fill:#000000" />
<path
   fill="#283B4C"
   opacity="1.000000"
   stroke="none"
   d=" M889.925415,201.086304   C889.200378,200.064178 888.475281,199.042053 887.442871,197.474152   C885.686829,194.386902 884.238220,191.845459 882.789551,189.304001   C884.026001,190.234451 885.582458,190.933182 886.449768,192.130890   C896.153931,205.531097 906.119324,218.764114 915.269653,232.536926   C923.546082,244.994446 931.312561,257.837372 938.529358,270.937134   C944.066406,280.987946 948.460449,291.674377 953.245667,302.131744   C956.928345,310.179810 960.827393,318.162964 963.907776,326.443726   C967.628967,336.447144 970.598755,346.730621 973.872498,356.899780   C976.037354,363.624695 978.359009,370.308441 980.225281,377.116211   C981.127563,380.407684 981.142944,383.942261 981.114624,387.417908   C979.043091,381.414368 977.653870,375.283234 975.730713,369.324402   C973.308960,361.820892 970.451050,354.458191 967.781311,347.034729   C967.745728,346.623596 967.710144,346.212494 967.708374,345.121094   C966.530396,341.040771 965.321045,337.639801 964.106201,334.240784   C962.160706,328.797272 960.465515,323.246918 958.204224,317.937775   C954.846741,310.054840 951.101440,302.336578 947.494934,294.560394   C944.242615,287.548035 941.317688,280.352661 937.601929,273.593414   C931.244934,262.029633 924.664429,250.566422 917.641357,239.398285   C912.293274,230.893631 906.114136,222.911530 900.304749,214.696930   C900.121338,214.420273 899.913696,214.163223 899.455444,213.415146   C896.127747,208.965134 893.026611,205.025726 889.925415,201.086304  z"
   id="path12"
   style="fill:#000000" />
<path
   fill="#5980A4"
   opacity="1.000000"
   stroke="none"
   d=" M878.398804,817.303711   C881.988037,812.026306 885.490601,806.687256 889.185913,801.485229   C895.319946,792.850037 901.755005,784.424011 907.731934,775.683228   C913.306946,767.530151 918.602295,759.174255 923.730408,750.731262   C927.143311,745.112000 930.057617,739.189087 933.174438,733.391052   C936.901672,726.457642 940.681274,719.550659 944.289490,712.555481   C946.027039,709.186890 947.554016,705.693848 948.948242,702.166992   C952.242676,693.832886 955.279846,685.395752 958.652832,677.094421   C961.226135,670.761230 964.155029,664.572571 967.443115,658.128296   C967.960388,657.936890 968.362122,658.051331 968.362122,658.051331   C968.362122,658.051331 968.779602,658.037598 968.779663,658.037598   C968.672974,658.689880 968.566345,659.342102 968.148804,660.516357   C966.784241,664.020447 965.730530,667.002686 964.676819,669.984863   C964.564148,670.641113 964.451477,671.297302 964.023193,672.467163   C961.011414,679.187134 958.215698,685.352844 955.656555,691.615356   C954.140015,695.326538 952.996765,699.190186 951.685547,702.985291   C951.455750,703.748352 951.226013,704.511475 950.514038,705.626831   C949.317017,707.620056 948.602112,709.260986 947.887268,710.901978   C947.785339,711.294861 947.683411,711.687683 947.242126,712.547241   C945.144958,716.182251 943.400452,719.358093 941.626770,722.517578   C935.148499,734.057495 929.098022,745.866882 922.064636,757.058289   C913.435791,770.788330 904.062134,784.055176 894.849731,797.411316   C890.462524,803.771851 885.703064,809.875549 881.112183,816.095520   C881.112183,816.095520 880.955750,816.459961 880.567688,816.663269   C879.586060,817.012329 878.992432,817.158081 878.398804,817.303711  z"
   id="path13"
   style="fill:#000000" />
<path
   fill="#283B4C"
   opacity="1.000000"
   stroke="none"
   d=" M801.885437,113.137238   C801.675415,112.897636 801.467957,112.655769 801.059570,111.893036   C795.041199,107.158783 789.226257,102.943146 783.411316,98.727516   C783.411316,98.727524 783.336609,98.646980 783.141541,98.327866   C779.083435,95.590988 775.220398,93.173225 771.357361,90.755463   C771.357361,90.755470 771.300903,90.692749 771.135864,90.365051   C766.803345,87.586960 762.635803,85.136566 758.468262,82.686172   C758.468262,82.686172 758.384155,82.598083 758.210205,82.260101   C747.041077,75.690804 736.054810,69.443848 725.046997,63.234840   C719.664124,60.198586 714.241516,57.232941 708.836853,54.235325   C712.659973,55.639397 716.683594,56.657940 720.267334,58.522232   C729.776489,63.468983 739.205505,68.592964 748.460876,73.998306   C758.569641,79.902031 768.772583,85.736633 778.348206,92.438950   C791.774719,101.836731 804.665222,112.000977 817.754272,121.878021   C818.219055,122.228752 818.357239,123.012268 818.282593,123.842506   C816.204590,122.834061 814.530029,121.520325 812.770630,120.332191   C809.166321,117.898178 805.516541,115.531578 801.885437,113.137238  z"
   id="path14"
   style="fill:#000000" />
<path
   fill="#2B3F52"
   opacity="1.000000"
   stroke="none"
   d=" M881.453735,816.031006   C885.703064,809.875549 890.462524,803.771851 894.849731,797.411316   C904.062134,784.055176 913.435791,770.788330 922.064636,757.058289   C929.098022,745.866882 935.148499,734.057495 941.626770,722.517578   C943.400452,719.358093 945.144958,716.182251 947.182312,712.846008   C946.058716,716.660889 945.247742,720.990540 943.152466,724.567993   C932.902954,742.067932 922.711365,759.625977 911.708374,776.652466   C903.549011,789.278687 894.206482,801.142883 885.300659,813.280212   C884.464661,814.419556 882.979187,815.082397 881.453735,816.031006  z"
   id="path15"
   style="fill:#000000" />
<path
   fill="#587EA3"
   opacity="1.000000"
   stroke="none"
   d=" M967.596558,347.356476   C970.451050,354.458191 973.308960,361.820892 975.730713,369.324402   C977.653870,375.283234 979.043091,381.414368 980.917480,387.747498   C981.194946,388.420807 981.224304,388.815674 981.164795,389.916931   C982.455505,395.744019 983.835083,400.864685 985.214661,405.985352   C985.259583,406.679932 985.304565,407.374542 985.251099,408.841980   C986.504089,415.738281 987.855469,421.861725 989.206787,427.985199   C989.261169,429.333984 989.315552,430.682800 989.406250,432.435272   C989.300232,435.301666 989.157837,437.764343 988.879272,440.673340   C988.389404,440.776215 987.783081,440.474396 987.718689,440.083344   C986.165894,430.656342 984.723083,421.211029 983.135681,411.790039   C982.622253,408.742615 981.722351,405.762115 981.062317,402.737213   C980.391663,399.663574 979.894287,396.549591 979.146851,393.495911   C978.297546,390.026581 977.267090,386.601105 976.285522,383.165161   C976.104187,382.530670 975.678833,381.959320 975.538269,381.320923   C973.986267,374.273499 972.513977,367.208069 970.905762,360.173676   C970.544128,358.591888 969.593140,357.150513 969.171387,355.575439   C968.474426,352.972595 967.987366,350.313568 967.596558,347.356476  z"
   id="path16"
   style="fill:#000000" />
<path
   fill="#507292"
   opacity="1.000000"
   stroke="none"
   d=" M708.486511,54.133018   C714.241516,57.232941 719.664124,60.198586 725.046997,63.234840   C736.054810,69.443848 747.041077,75.690804 758.161987,82.222893   C753.421082,80.275009 748.476440,78.179375 743.702881,75.747932   C731.242493,69.401108 719.010010,62.586102 706.393799,56.572178   C696.034302,51.634037 685.235291,47.622410 674.680298,43.085556   C673.036865,42.379173 671.656555,41.060894 670.342102,39.535889   C670.761658,38.904995 670.993591,38.763790 671.225586,38.622581   C671.620178,38.669174 672.014832,38.715771 672.922607,39.067245   C679.323059,41.877327 685.210266,44.382526 691.097534,46.887726   C696.777100,49.268719 702.456604,51.649715 708.486511,54.133018  z"
   id="path17"
   style="fill:#000000" />
<path
   fill="#537A9E"
   opacity="1.000000"
   stroke="none"
   d=" M346.901184,969.238708   C346.489502,969.167786 346.077789,969.096802 345.248444,968.651001   C344.467224,967.696655 344.103668,967.117188 343.774414,966.384949   C343.808746,966.232117 343.993439,965.979004 344.402954,966.016846   C350.620850,967.690491 356.384216,969.515015 362.249054,970.914246   C369.540588,972.653870 376.917480,974.035156 384.251984,975.597229   C384.722198,975.697388 385.124054,976.094055 385.593353,976.227173   C389.195587,977.248474 392.813629,978.214539 396.413330,979.244568   C401.001862,980.557617 406.577484,978.950378 410.042603,984.157593   C410.126099,984.740906 410.138031,984.976990 410.149933,985.213013   C409.043640,985.163391 407.937317,985.113770 406.203674,984.681152   C402.342377,983.634277 399.108459,982.970398 395.874542,982.306519   C392.168060,981.641724 388.461609,980.976929 384.245026,979.963379   C382.492371,979.123474 381.249817,978.632324 379.652039,978.105103   C378.828827,978.132446 378.360809,978.195801 377.892792,978.259216   C375.864014,977.846863 373.835205,977.434570 371.208801,976.688354   C367.365509,975.349670 364.119781,974.344849 360.874084,973.340088   C359.842896,973.238647 358.811737,973.137207 357.174530,972.719238   C353.346069,971.348022 350.123627,970.293335 346.901184,969.238708  z"
   id="path18"
   style="fill:#000000" />
<path
   fill="#283B4C"
   opacity="1.000000"
   stroke="none"
   d=" M671.040771,38.351711   C670.993591,38.763790 670.761658,38.904995 670.179871,39.255417   C669.122009,39.371792 668.413940,39.278954 667.148254,38.838631   C659.646973,36.114174 652.703369,33.737190 645.759705,31.360210   C645.369141,31.301735 644.978577,31.243261 644.029663,30.901310   C639.263489,29.478287 635.055603,28.338743 630.847778,27.199196   C630.847778,27.199196 630.359558,27.150433 629.929626,26.951132   C629.009705,26.809912 628.519775,26.867990 628.029785,26.926071   C627.318542,26.778587 626.607300,26.631104 625.227173,26.218178   C622.433960,25.225868 620.309631,24.498997 618.185364,23.772123   C615.770203,23.342924 613.354980,22.913725 610.184204,22.298182   C608.600708,22.109806 607.772766,22.107777 606.944885,22.105747   C606.944885,22.105749 606.545410,21.941345 606.252136,21.591028   C605.285095,20.907944 604.611328,20.575178 603.568604,20.111954   C601.438904,19.478954 599.678162,18.976414 597.917419,18.473877   C601.467957,18.469793 605.063782,18.110836 608.557007,18.556328   C612.447632,19.052502 616.263306,20.210815 620.076538,21.214029   C622.739746,21.914690 625.354736,22.806955 627.968811,23.680946   C628.898315,23.991713 629.723877,24.632759 630.660583,24.899548   C641.886902,28.097048 653.153137,31.158754 664.337524,34.495449   C666.660156,35.188385 668.690796,36.860176 671.040771,38.351711  z"
   id="path19"
   style="fill:#000000" />
<path
   fill="#283B4C"
   opacity="1.000000"
   stroke="none"
   d=" M867.441650,173.703613   C867.195740,173.442932 866.949890,173.182236 866.391479,172.436295   C864.370117,170.317917 862.661133,168.684799 860.952148,167.051682   C860.952148,167.051697 861.000000,167.000610 860.947754,166.679535   C853.699646,158.870270 846.532532,151.354080 839.269775,143.931427   C838.416748,143.059647 837.037415,142.702805 835.902100,142.107239   C835.673401,141.888428 835.457520,141.657608 835.065430,140.901688   C833.382080,139.163986 831.887817,137.939392 830.393555,136.714798   C830.148071,136.467560 829.902527,136.220322 829.345825,135.525574   C828.363525,134.712219 827.692505,134.346375 827.021484,133.980560   C827.021484,133.980560 827.000000,134.000000 826.967712,133.653625   C825.112488,131.766647 823.289490,130.226013 821.466553,128.685394   C821.219849,128.426376 820.973206,128.167358 820.469849,127.465294   C820.044128,126.507843 819.875000,125.993431 819.705811,125.479034   C821.897034,126.796356 824.345459,127.819748 826.239563,129.476715   C844.120300,145.118881 861.479614,161.285751 875.634888,180.596695   C872.708252,178.503708 870.074951,176.103653 867.441650,173.703613  z"
   id="path20"
   style="fill:#000000" />
<path
   fill="#5980A4"
   opacity="1.000000"
   stroke="none"
   d=" M855.744385,844.581787   C848.150574,851.508789 840.691528,858.296143 833.180054,865.025146   C830.837952,867.123230 828.354248,869.063232 825.611816,871.157471   C826.740173,869.358826 828.019470,867.308838 829.671448,865.624451   C842.529114,852.514038 855.451782,839.467285 868.390198,826.436340   C868.933105,825.889526 869.828491,825.692688 870.826782,825.657043   C866.092590,832.019958 861.091248,838.058533 856.089844,844.097046   C856.089844,844.097046 855.858887,844.419739 855.744385,844.581787  z"
   id="path21"
   style="fill:#000000" />
<path
   fill="#2B3F52"
   opacity="1.000000"
   stroke="none"
   d=" M536.356079,993.501953   C544.482300,991.954041 552.943481,990.593933 561.414429,989.297424   C570.244751,987.945862 579.080078,986.625732 587.923401,985.363342   C589.718567,985.107056 591.559204,985.170105 593.812134,985.231689   C591.584717,986.485901 589.012207,988.166748 586.246643,988.592102   C578.875854,989.725769 571.421997,990.318970 563.183228,991.157898   C560.579224,991.806641 558.793213,992.424561 557.007263,993.042480   C556.581787,993.082458 556.156372,993.122498 554.986084,993.131104   C551.824585,993.379089 549.407837,993.658447 546.991089,993.937744   C543.559204,993.864441 540.127319,993.791077 536.356079,993.501953  z"
   id="path22"
   style="fill:#000000" />
<path
   fill="#283B4C"
   opacity="1.000000"
   stroke="none"
   d=" M570.935059,13.485226   C566.435425,13.783115 561.781006,13.760482 556.565918,13.436436   C555.003418,12.967628 554.001648,12.800233 552.692871,12.591270   C551.769653,12.586521 551.153442,12.623340 550.358765,12.405421   C549.440002,11.919991 548.699768,11.689298 547.539917,11.374075   C544.736450,10.779831 542.352600,10.270117 539.968750,9.760405   C545.659302,9.666421 551.400146,9.070560 557.024780,9.634282   C561.681091,10.100956 566.200256,11.935950 570.935059,13.485226  z"
   id="path23"
   style="fill:#000000" />
<path
   fill="#2B3F52"
   opacity="1.000000"
   stroke="none"
   d=" M856.445679,844.085449   C861.091248,838.058533 866.092590,832.019958 871.174988,825.657837   C871.256042,825.334351 871.310669,825.295105 871.613708,825.143982   C874.028870,822.445679 876.140991,819.898499 878.253052,817.351257   C878.253052,817.351257 878.334656,817.355103 878.366760,817.329468   C878.992432,817.158081 879.586060,817.012329 880.486206,816.843994   C878.138367,820.545898 875.807068,824.563110 872.756958,827.929016   C867.680969,833.530396 862.144165,838.714111 856.445679,844.085449  z"
   id="path24"
   style="fill:#000000" />
<path
   fill="#547697"
   opacity="1.000000"
   stroke="none"
   d=" M305.179443,952.704224   C305.151886,952.265381 305.109680,951.894043 305.300781,951.057129   C309.471893,952.032959 313.474335,953.321228 317.333160,954.949768   C323.983765,957.756470 330.545013,960.774963 336.758850,963.771729   C334.528229,963.325989 332.686493,962.798035 330.835754,962.303711   C328.438141,961.663513 326.033386,961.050049 323.631683,960.425110   C322.380035,960.201904 321.128418,959.978699 319.544189,959.525146   C319.211639,959.294861 319.113953,958.889832 318.981049,958.567017   C317.404205,957.707336 315.960236,957.170471 314.516266,956.633667   C312.910583,956.246033 311.304901,955.858398 309.268188,955.136963   C307.589233,954.165405 306.341309,953.527710 305.093384,952.890015   C305.093384,952.890015 305.164795,952.771729 305.179443,952.704224  z"
   id="path25"
   style="fill:#000000" />
<path
   fill="#2B3F52"
   opacity="1.000000"
   stroke="none"
   d=" M597.319214,985.356018   C601.862305,983.727356 606.689697,982.184143 611.586792,980.908325   C616.808105,979.548096 622.095215,978.440674 627.642395,977.379150   C625.876648,978.995789 624.008179,981.215271 621.732361,981.773254   C615.090576,983.401611 608.292297,984.402954 601.539734,985.558838   C600.274902,985.775391 598.937927,985.569824 597.319214,985.356018  z"
   id="path26"
   style="fill:#000000" />
<path
   fill="#30475C"
   opacity="1.000000"
   stroke="none"
   d=" M410.457397,985.384521   C410.138031,984.976990 410.126099,984.740906 410.421753,984.185303   C411.486816,983.903992 412.244293,983.942383 413.331543,984.199280   C421.151062,985.546692 428.640808,986.675598 436.440948,987.843628   C437.165924,987.928528 437.580536,987.974304 438.005249,988.338379   C438.018127,988.869019 438.020874,989.081299 438.023651,989.293579   C431.474670,988.831787 424.907532,988.536560 418.385681,987.825745   C415.793732,987.543213 413.302155,986.340027 410.457397,985.384521  z"
   id="path27"
   style="fill:#000000" />
<path
   fill="#507292"
   opacity="1.000000"
   stroke="none"
   d=" M867.388794,174.059311   C870.074951,176.103653 872.708252,178.503708 875.685059,180.937164   C876.028625,180.970535 876.010254,180.986008 876.035522,181.303925   C876.741150,182.384186 877.421570,183.146500 878.101990,183.908813   C878.101990,183.908798 878.004883,183.992920 878.132568,184.259216   C879.398254,185.761108 880.536133,186.996689 881.674011,188.232269   C881.919556,188.472778 882.165039,188.713257 882.600098,189.128876   C884.238220,191.845459 885.686829,194.386902 887.224365,197.248383   C886.229858,196.962448 884.834412,196.607635 884.112671,195.710724   C878.447632,188.670700 872.911621,181.526855 867.388794,174.059311  z"
   id="path28"
   style="fill:#000000" />
<path
   fill="#283B4C"
   opacity="1.000000"
   stroke="none"
   d=" M585.984314,18.028900   C585.253723,17.866835 584.523071,17.704771 583.228027,17.224918   C580.230103,16.363384 577.796509,15.819641 575.362976,15.275901   C575.396973,15.064110 575.431030,14.852316 575.689819,14.410355   C580.062439,14.244385 584.251404,13.982657 588.342407,14.498223   C590.697693,14.795049 592.894470,16.349548 595.255615,17.636543   C593.881165,18.119787 592.413696,18.304419 590.182251,18.282375   C588.273560,18.060101 587.128967,18.044500 585.984314,18.028900  z"
   id="path29"
   style="fill:#000000" />
<path
   fill="#2B3F52"
   opacity="1.000000"
   stroke="none"
   d=" M951.986206,702.790649   C952.996765,699.190186 954.140015,695.326538 955.656555,691.615356   C958.215698,685.352844 961.011414,679.187134 963.968262,672.795532   C962.669250,677.551147 961.395020,682.606262 959.472961,687.401917   C957.392578,692.592834 954.707886,697.541565 951.986206,702.790649  z"
   id="path30"
   style="fill:#000000" />
<path
   fill="#283B4C"
   opacity="1.000000"
   stroke="none"
   d=" M989.419800,427.645264   C987.855469,421.861725 986.504089,415.738281 985.286377,409.188171   C989.893555,414.245575 990.304260,420.652527 989.419800,427.645264  z"
   id="path31"
   style="fill:#000000" />
<path
   fill="#30475C"
   opacity="1.000000"
   stroke="none"
   d=" M323.775543,960.740234   C326.033386,961.050049 328.438141,961.663513 330.835754,962.303711   C332.686493,962.798035 334.528229,963.325989 337.067749,963.823792   C338.174347,963.872498 338.587189,963.936279 339.208069,964.252563   C340.628784,965.006165 341.841431,965.507263 343.156006,966.113647   C343.397980,966.356567 343.558716,966.462830 343.740112,966.537781   C344.103668,967.117188 344.467224,967.696655 344.938721,968.602051   C338.004211,966.303772 330.961792,963.679565 323.775543,960.740234  z"
   id="path32"
   style="fill:#000000" />
<path
   fill="#587EA3"
   opacity="1.000000"
   stroke="none"
   d=" M550.537231,12.660160   C551.153442,12.623340 551.769653,12.586521 552.694031,12.955713   C553.007446,13.603394 553.012695,13.845063 553.017944,14.086734   C547.116455,15.458862 541.524780,14.659040 536.113770,11.361119   C536.245911,10.743709 536.506348,10.459019 536.896118,9.915422   C537.760986,9.695498 538.496582,9.734477 539.600464,9.766930   C542.352600,10.270117 544.736450,10.779831 547.704163,11.622546   C549.037781,12.190418 549.787476,12.425289 550.537231,12.660160  z"
   id="path33"
   style="fill:#000000" />
<path
   fill="#507292"
   opacity="1.000000"
   stroke="none"
   d=" M819.511719,125.279213   C819.875000,125.993431 820.044128,126.507843 820.268860,127.287529   C815.812378,124.415482 811.252075,121.344353 806.812683,118.107437   C805.093628,116.854019 803.648376,115.225220 801.981934,113.452332   C805.516541,115.531578 809.166321,117.898178 812.770630,120.332191   C814.530029,121.520325 816.204590,122.834061 818.232483,124.182388   C818.804199,124.542343 819.060913,124.810875 819.511719,125.279213  z"
   id="path34"
   style="fill:#000000" />
<path
   fill="#283B4C"
   opacity="1.000000"
   stroke="none"
   d=" M690.975769,46.572487   C685.210266,44.382526 679.323059,41.877327 673.219482,39.093838   C673.778992,38.632473 674.747620,38.056316 675.300842,38.327492   C680.525574,40.888367 685.679626,43.593605 690.975769,46.572487  z"
   id="path35"
   style="fill:#000000" />
<path
   fill="#537A9E"
   opacity="1.000000"
   stroke="none"
   d=" M18.156242,584.959106   C16.837749,580.154297 15.519255,575.349426 13.946688,570.239868   C13.663501,569.558105 13.634384,569.181152 13.601902,568.520691   C13.826440,567.683960 14.054343,567.130798 14.687175,566.409424   C16.000517,569.256531 17.228172,572.219910 17.728649,575.301392   C18.241709,578.460449 18.043274,581.735046 18.156242,584.959106  z"
   id="path36"
   style="fill:#000000" />
<path
   fill="#2B3F52"
   opacity="1.000000"
   stroke="none"
   d=" M986.077209,590.824646   C986.713013,585.180969 987.696655,579.381226 988.935608,573.291077   C989.464844,579.077209 990.094604,585.209412 986.077209,590.824646  z"
   id="path37"
   style="fill:#000000" />
<path
   fill="#283B4C"
   opacity="1.000000"
   stroke="none"
   d=" M985.419006,405.650970   C983.835083,400.864685 982.455505,395.744019 981.202087,390.211548   C985.444336,394.228973 986.471069,399.513367 985.419006,405.650970  z"
   id="path38"
   style="fill:#000000" />
<path
   fill="#2B3F52"
   opacity="1.000000"
   stroke="none"
   d=" M982.017395,611.864624   C982.640198,607.154541 983.638489,602.355042 984.895874,597.277588   C985.468567,602.155640 986.009338,607.354004 982.017395,611.864624  z"
   id="path39"
   style="fill:#000000" />
<path
   fill="#5980A4"
   opacity="1.000000"
   stroke="none"
   d=" M967.650513,656.414734   C965.978638,651.930420 968.163147,648.840759 971.716919,646.057861   C972.206055,646.695557 972.351135,647.397339 972.199219,648.568726   C970.484985,651.497192 969.067749,653.955994 967.650513,656.414734  z"
   id="path40"
   style="fill:#000000" />
<path
   fill="#172634"
   opacity="1.000000"
   stroke="none"
   d=" M361.014343,973.643555   C364.119781,974.344849 367.365509,975.349670 370.809082,976.645752   C367.114410,977.945068 363.857086,976.860107 361.014343,973.643555  z"
   id="path41"
   style="fill:#000000" />
<path
   fill="#2B3F52"
   opacity="1.000000"
   stroke="none"
   d=" M977.790161,629.182007   C978.287903,626.214172 979.119202,623.134583 980.243896,619.879272   C979.732727,622.825806 978.928162,625.948059 977.790161,629.182007  z"
   id="path42"
   style="fill:#000000" />
<path
   fill="#2B3F52"
   opacity="1.000000"
   stroke="none"
   d=" M967.641968,656.665039   C969.067749,653.955994 970.484985,651.497192 972.170227,648.854980   C971.416260,651.658813 970.394226,654.646118 969.075928,657.835510   C968.779602,658.037598 968.362122,658.051331 968.362122,658.051331   C968.362122,658.051331 967.960388,657.936890 967.752625,657.925415   C967.574341,657.580994 967.603821,657.248169 967.641968,656.665039  z"
   id="path43"
   style="fill:#000000" />
<path
   fill="#172634"
   opacity="1.000000"
   stroke="none"
   d=" M347.049591,969.535278   C350.123627,970.293335 353.346069,971.348022 356.788208,972.675903   C353.737915,971.909973 350.467957,970.870911 347.049591,969.535278  z"
   id="path44"
   style="fill:#000000" />
<path
   fill="#1B2935"
   opacity="1.000000"
   stroke="none"
   d=" M395.985748,982.637207   C399.108459,982.970398 402.342377,983.634277 405.795654,984.601440   C402.229340,986.715332 398.977020,985.794861 395.985748,982.637207  z"
   id="path45"
   style="fill:#000000" />
<path
   fill="#2B3F52"
   opacity="1.000000"
   stroke="none"
   d=" M973.716980,643.129333   C974.241516,640.518982 975.095215,637.781372 976.243286,634.873291   C977.138184,637.898926 977.539551,641.035095 973.716980,643.129333  z"
   id="path46"
   style="fill:#000000" />
<path
   fill="#2B3F52"
   opacity="1.000000"
   stroke="none"
   d=" M964.984375,669.795044   C965.730530,667.002686 966.784241,664.020447 968.095093,660.842407   C967.332214,663.632751 966.312073,666.619019 964.984375,669.795044  z"
   id="path47"
   style="fill:#000000" />
<path
   fill="#587EA3"
   opacity="1.000000"
   stroke="none"
   d=" M597.692017,18.410229   C599.678162,18.976414 601.438904,19.478954 603.582703,20.429058   C603.988525,21.303864 604.011353,21.731104 604.034180,22.158344   C601.747498,21.232006 599.460876,20.305672 597.155212,19.028873   C597.136169,18.678410 597.466675,18.346586 597.692017,18.410229  z"
   id="path48"
   style="fill:#000000" />
<path
   fill="#10181F"
   opacity="1.000000"
   stroke="none"
   d=" M547.304810,994.160950   C549.407837,993.658447 551.824585,993.379089 554.668579,993.174927   C552.603394,993.628052 550.110962,994.006104 547.304810,994.160950  z"
   id="path49"
   style="fill:#000000" />
<path
   fill="#161D25"
   opacity="1.000000"
   stroke="none"
   d=" M991.458618,562.941406   C991.615784,560.596924 992.080627,558.098816 992.767090,555.300354   C992.581177,557.595947 992.173706,560.191895 991.458618,562.941406  z"
   id="path50"
   style="fill:#000000" />
<path
   fill="#10181F"
   opacity="1.000000"
   stroke="none"
   d=" M557.278198,993.241333   C558.793213,992.424561 560.579224,991.806641 562.733032,991.208740   C561.250305,991.965942 559.399658,992.703125 557.278198,993.241333  z"
   id="path51"
   style="fill:#000000" />
<path
   fill="#182735"
   opacity="1.000000"
   stroke="none"
   d=" M305.129456,953.223083   C306.341309,953.527710 307.589233,954.165405 308.960022,955.088013   C306.377045,957.786072 306.093231,954.976929 305.129456,953.223083  z"
   id="path52"
   style="fill:#000000" />
<path
   fill="#2B3F52"
   opacity="1.000000"
   stroke="none"
   d=" M948.215942,710.773438   C948.602112,709.260986 949.317017,707.620056 950.366577,705.886841   C949.982361,707.411438 949.263489,709.028198 948.215942,710.773438  z"
   id="path53"
   style="fill:#000000" />
<path
   fill="#283B4C"
   opacity="1.000000"
   stroke="none"
   d=" M881.697998,187.873184   C880.536133,186.996689 879.398254,185.761108 878.175293,184.211151   C879.300781,185.102539 880.511414,186.308319 881.697998,187.873184  z"
   id="path54"
   style="fill:#000000" />
<path
   fill="#30475C"
   opacity="1.000000"
   stroke="none"
   d=" M314.630157,956.899292   C315.960236,957.170471 317.404205,957.707336 318.610077,958.614380   C317.876434,959.031860 317.380890,959.079163 316.885315,959.126465   C316.171539,958.472656 315.457794,957.818848 314.630157,956.899292  z"
   id="path55"
   style="fill:#000000" />
<path
   fill="#172634"
   opacity="1.000000"
   stroke="none"
   d=" M377.944885,978.604980   C378.360809,978.195801 378.828827,978.132446 379.742859,978.386108   C380.799225,979.481445 381.409607,980.259705 382.019989,981.037964   C380.678986,980.342163 379.337982,979.646423 377.944885,978.604980  z"
   id="path56"
   style="fill:#000000" />
<path
   fill="#182735"
   opacity="1.000000"
   stroke="none"
   d=" M382.292969,981.028931   C381.409607,980.259705 380.799225,979.481445 380.098053,978.422180   C381.249817,978.632324 382.492371,979.123474 383.841003,979.938293   C383.486694,980.514648 383.026306,980.767334 382.292969,981.028931  z"
   id="path57"
   style="fill:#000000" />
<path
   fill="#537A9E"
   opacity="1.000000"
   stroke="none"
   d=" M438.390442,989.329224   C438.020874,989.081299 438.018127,988.869019 438.197815,988.162109   C439.269226,987.871887 440.158173,988.076172 441.047119,988.280518   C441.028900,988.478088 441.010712,988.675659 440.979156,989.170593   C440.229614,989.433655 439.493408,989.399231 438.390442,989.329224  z"
   id="path58"
   style="fill:#000000" />
<path
   fill="#2B3F52"
   opacity="1.000000"
   stroke="none"
   d=" M981.056763,616.734863   C980.819641,615.986511 980.844055,614.975891 981.085693,613.802490   C981.308044,614.583984 981.313232,615.528259 981.056763,616.734863  z"
   id="path59"
   style="fill:#000000" />
<path
   fill="#283B4C"
   opacity="1.000000"
   stroke="none"
   d=" M878.081055,183.579956   C877.421570,183.146500 876.741150,182.384186 876.045288,181.296875   C876.706604,181.731628 877.383362,182.491364 878.081055,183.579956  z"
   id="path60"
   style="fill:#000000" />
<path
   fill="#10181F"
   opacity="1.000000"
   stroke="none"
   d=" M527.035889,993.282959   C527.513245,993.222229 528.050537,993.404297 528.794922,993.785522   C528.366577,993.831726 527.731201,993.678650 527.035889,993.282959  z"
   id="path61"
   style="fill:#000000" />
<path
   fill="#182735"
   opacity="1.000000"
   stroke="none"
   d=" M316.974060,959.377441   C317.380890,959.079163 317.876434,959.031860 318.742981,958.937195   C319.113953,958.889832 319.211639,959.294861 319.163391,959.496948   C318.431030,959.675537 317.746887,959.651978 316.974060,959.377441  z"
   id="path62"
   style="fill:#000000" />
<path
   fill="#587EA3"
   opacity="1.000000"
   stroke="none"
   d=" M530.835510,471.774109   C529.860229,470.628296 528.480042,469.108276 528.194031,467.404602   C527.758972,464.811768 528.082947,462.091675 528.082947,459.425629   C528.083435,312.125854 528.077148,164.826050 528.138977,17.526283   C528.140076,15.027589 526.659668,11.468721 531.563782,10.897778   C531.797363,14.407446 531.532410,17.855738 531.488464,21.306845   C531.454651,23.961329 531.804138,26.619337 531.804504,29.275801   C531.821655,171.813995 531.828552,314.352203 531.781982,456.890411   C531.780457,461.699585 531.220337,466.508575 530.835510,471.774109  z"
   id="path63"
   style="fill:#000000" />
<path
   fill="#587EA3"
   opacity="1.000000"
   stroke="none"
   d=" M988.614929,443.367371   C990.153809,452.007629 991.670044,460.972076 992.577393,469.997742   C992.709290,471.310028 990.174438,473.566498 988.434937,474.221771   C986.198242,475.064392 983.518494,474.882019 981.029541,474.882690   C837.502014,474.922241 693.974426,474.935150 550.446899,474.945343   C549.282471,474.945404 548.117981,474.871826 546.336365,474.498932   C544.136536,474.348267 542.553833,474.531281 540.971191,474.714355   C538.628113,474.754028 536.284973,474.793732 533.489258,474.456116   C533.010132,473.652191 532.983765,473.225647 532.957336,472.799072   C537.544800,472.443939 542.127930,472.003357 546.721558,471.769440   C549.039185,471.651459 551.375916,471.984131 553.703979,471.984344   C691.174622,471.996552 828.645203,472.007294 966.115845,471.960388   C973.096252,471.958008 980.074890,471.390717 987.057495,471.199158   C990.541321,471.103516 990.880371,469.697205 990.410706,466.393616   C989.343689,458.889069 989.021423,451.278625 988.614929,443.367371  z"
   id="path64"
   style="fill:#000000" />
<path
   fill="#587EA3"
   opacity="1.000000"
   stroke="none"
   d=" M900.254272,215.074158   C906.114136,222.911530 912.293274,230.893631 917.641357,239.398285   C924.664429,250.566422 931.244934,262.029633 937.601929,273.593414   C941.317688,280.352661 944.242615,287.548035 947.494934,294.560394   C951.101440,302.336578 954.846741,310.054840 958.204224,317.937775   C960.465515,323.246918 962.160706,328.797272 964.106201,334.240784   C965.321045,337.639801 966.530396,341.040771 967.649536,344.817230   C965.997131,342.358002 964.207764,339.621918 962.926331,336.665680   C960.389587,330.813812 958.114624,324.847778 955.767212,318.914795   C953.843079,314.051544 952.154846,309.085876 950.031738,304.312531   C946.946106,297.375244 943.792847,290.449249 940.256958,283.735199   C933.954712,271.768280 927.649292,259.783295 920.768799,248.146698   C915.039978,238.457962 908.462646,229.272232 902.320007,219.825409   C901.444092,218.478302 900.900940,216.914780 900.254272,215.074158  z"
   id="path65"
   style="fill:#000000" />
<path
   fill="#507292"
   opacity="1.000000"
   stroke="none"
   d=" M835.964600,142.439163   C837.037415,142.702805 838.416748,143.059647 839.269775,143.931427   C846.532532,151.354080 853.699646,158.870270 860.921936,166.703278   C856.375000,162.876877 851.698853,158.811523 847.259277,154.502441   C843.376953,150.734406 839.760742,146.692200 835.964600,142.439163  z"
   id="path66"
   style="fill:#000000" />
<path
   fill="#507292"
   opacity="1.000000"
   stroke="none"
   d=" M645.928833,31.645426   C652.703369,33.737190 659.646973,36.114174 666.797180,38.774559   C666.726379,39.222431 666.372253,39.592403 666.182800,39.521618   C659.478271,37.016918 652.789185,34.470890 645.928833,31.645426  z"
   id="path67"
   style="fill:#000000" />
<path
   fill="#507292"
   opacity="1.000000"
   stroke="none"
   d=" M783.375122,99.078552   C789.226257,102.943146 795.041199,107.158783 800.902710,111.712784   C795.079224,107.843956 789.209106,103.636780 783.375122,99.078552  z"
   id="path68"
   style="fill:#000000" />
<path
   fill="#507292"
   opacity="1.000000"
   stroke="none"
   d=" M631.010010,27.493343   C635.055603,28.338743 639.263489,29.478287 643.735718,30.864689   C638.989380,32.839127 635.106934,30.212387 631.010010,27.493343  z"
   id="path69"
   style="fill:#000000" />
<path
   fill="#507292"
   opacity="1.000000"
   stroke="none"
   d=" M758.425842,83.038742   C762.635803,85.136566 766.803345,87.586960 771.103027,90.338547   C766.951233,88.223602 762.667358,85.807457 758.425842,83.038742  z"
   id="path70"
   style="fill:#000000" />
<path
   fill="#507292"
   opacity="1.000000"
   stroke="none"
   d=" M889.980469,201.433350   C893.026611,205.025726 896.127747,208.965134 899.280762,213.238892   C896.233643,209.642288 893.134644,205.711334 889.980469,201.433350  z"
   id="path71"
   style="fill:#000000" />
<path
   fill="#507292"
   opacity="1.000000"
   stroke="none"
   d=" M771.337769,91.109543   C775.220398,93.173225 779.083435,95.590988 783.098145,98.294220   C777.675293,98.886002 774.764221,94.726311 771.337769,91.109543  z"
   id="path72"
   style="fill:#000000" />
<path
   fill="#587EA3"
   opacity="1.000000"
   stroke="none"
   d=" M575.335205,15.537910   C577.796509,15.819641 580.230103,16.363384 582.854980,17.191025   C579.824951,19.881706 577.573059,17.809170 575.335205,15.537910  z"
   id="path73"
   style="fill:#000000" />
<path
   fill="#587EA3"
   opacity="1.000000"
   stroke="none"
   d=" M618.204102,24.130657   C620.309631,24.498997 622.433960,25.225868 624.864014,26.200270   C622.213379,28.067728 619.862549,27.539547 618.204102,24.130657  z"
   id="path74"
   style="fill:#000000" />
<path
   fill="#507292"
   opacity="1.000000"
   stroke="none"
   d=" M821.411621,129.031464   C823.289490,130.226013 825.112488,131.766647 826.977417,133.642792   C825.131836,132.444733 823.244263,130.911133 821.411621,129.031464  z"
   id="path75"
   style="fill:#000000" />
<path
   fill="#507292"
   opacity="1.000000"
   stroke="none"
   d=" M861.000366,167.394928   C862.661133,168.684799 864.370117,170.317917 866.189758,172.258545   C864.549805,170.956757 862.799194,169.347473 861.000366,167.394928  z"
   id="path76"
   style="fill:#000000" />
<path
   fill="#507292"
   opacity="1.000000"
   stroke="none"
   d=" M830.365662,137.061661   C831.887817,137.939392 833.382080,139.163986 834.916321,140.717300   C833.416748,139.833527 831.877258,138.621033 830.365662,137.061661  z"
   id="path77"
   style="fill:#000000" />
<path
   fill="#587EA3"
   opacity="1.000000"
   stroke="none"
   d=" M586.078491,18.319414   C587.128967,18.044500 588.273560,18.060101 589.802429,18.288759   C588.848694,18.537853 587.510681,18.573891 586.078491,18.319414  z"
   id="path78"
   style="fill:#000000" />
<path
   fill="#587EA3"
   opacity="1.000000"
   stroke="none"
   d=" M607.025879,22.374512   C607.772766,22.107777 608.600708,22.109806 609.809082,22.293070   C609.161987,22.530628 608.134460,22.586950 607.025879,22.374512  z"
   id="path79"
   style="fill:#000000" />
<path
   fill="#507292"
   opacity="1.000000"
   stroke="none"
   d=" M553.426086,14.102299   C553.012695,13.845063 553.007446,13.603394 553.000977,12.997281   C554.001648,12.800233 555.003418,12.967628 556.114868,13.395016   C555.427734,13.809292 554.630981,13.963578 553.426086,14.102299  z"
   id="path80"
   style="fill:#000000" />
<path
   fill="#507292"
   opacity="1.000000"
   stroke="none"
   d=" M604.392395,22.153093   C604.011353,21.731104 603.988525,21.303864 603.951660,20.559517   C604.611328,20.575178 605.285095,20.907944 606.046875,21.523731   C605.673523,21.920450 605.212036,22.034145 604.392395,22.153093  z"
   id="path81"
   style="fill:#000000" />
<path
   fill="#507292"
   opacity="1.000000"
   stroke="none"
   d=" M827.083374,134.294159   C827.692505,134.346375 828.363525,134.712219 829.152588,135.349609   C828.562134,135.283356 827.853760,134.945557 827.083374,134.294159  z"
   id="path82"
   style="fill:#000000" />
<path
   fill="#507292"
   opacity="1.000000"
   stroke="none"
   d=" M532.641846,472.788086   C532.983765,473.225647 533.010132,473.652191 533.054077,474.394836   C532.414307,474.324371 531.757019,473.937805 531.088745,473.235474   C531.493896,472.872131 531.910095,472.824615 532.641846,472.788086  z"
   id="path83"
   style="fill:#000000" />
<path
   fill="#587EA3"
   opacity="1.000000"
   stroke="none"
   d=" M628.241638,27.034996   C628.519775,26.867990 629.009705,26.809912 629.684448,26.941494   C629.397339,27.135412 628.925415,27.139666 628.241638,27.034996  z"
   id="path84"
   style="fill:#000000" />
<path
   fill="#5980A4"
   opacity="1.000000"
   stroke="none"
   d=" M824.846069,871.239868   C816.934204,878.402283 809.095642,886.126648 800.272217,892.484131   C784.569336,903.798645 768.659058,914.930054 752.101685,924.921997   C737.995789,933.434753 722.990967,940.511780 708.134216,947.708740   C696.833618,953.183105 685.199829,957.989624 673.595642,962.807556   C668.740112,964.823547 663.577637,966.100159 658.177734,967.614441   C661.080750,965.771667 664.260742,963.793701 667.664001,962.337158   C672.933716,960.081848 678.387634,958.261230 683.702637,956.106262   C687.797363,954.446167 691.837708,952.638306 695.834839,950.753113   C711.315125,943.451782 726.941101,936.429626 742.161133,928.618286   C750.136414,924.525024 757.440735,919.098450 764.942993,914.115845   C775.907043,906.834045 786.973450,899.681335 797.622864,891.958740   C805.758423,886.059082 813.300293,879.342712 821.148438,873.042175   C822.124878,872.258240 823.360168,871.796753 824.846069,871.239868  z"
   id="path85"
   style="fill:#000000" />
<path
   fill="#5980A4"
   opacity="1.000000"
   stroke="none"
   d=" M655.674194,967.668335   C652.835754,969.152893 649.693359,970.442505 646.174561,971.641479   C648.178528,968.289551 651.128662,966.365479 655.674194,967.668335  z"
   id="path86"
   style="fill:#000000" />
<path
   fill="#5980A4"
   opacity="1.000000"
   stroke="none"
   d=" M877.901001,817.316406   C876.140991,819.898499 874.028870,822.445679 871.614990,825.110352   C873.391846,822.579102 875.470337,819.930359 877.901001,817.316406  z"
   id="path87"
   style="fill:#000000" />
<path
   fill="#74A9DB"
   opacity="1.000000"
   stroke="none"
   d=" M61.192532,286.271423   C67.565575,274.274628 73.577499,262.490784 80.184692,251.050735   C85.972420,241.029556 92.190140,231.233475 98.665123,221.639786   C103.842148,213.969238 109.343636,206.458115 115.317909,199.398178   C126.242599,186.488251 137.195923,173.551712 148.931580,161.392929   C161.145752,148.738373 173.742966,136.327789 187.198898,125.033119   C200.492416,113.874802 214.917587,104.030014 229.136719,94.021568   C238.308350,87.565903 247.802887,81.505936 257.520386,75.906723   C267.063049,70.408241 277.079865,65.734581 286.869507,60.662018   C291.092468,58.473843 295.114990,55.818954 299.496613,54.034023   C307.810638,50.647152 316.339233,47.791012 324.736542,44.603271   C329.656433,42.735611 334.424011,40.450783 339.386841,38.716106   C346.482208,36.236027 353.654175,33.953388 360.867645,31.839636   C366.827942,30.093103 373.005157,29.045208 378.893585,27.103476   C391.652710,22.896084 405.008087,21.476784 417.923828,18.340710   C430.247986,15.348277 442.666473,15.699773 454.933441,13.757209   C463.292084,12.433554 463.272797,12.482919 463.272461,21.142017   C463.266449,167.287109 463.267700,313.432220 463.267151,459.577301   C463.267151,461.077087 463.266449,462.576843 463.262848,464.076630   C463.243408,472.156525 462.585052,472.715302 454.702271,471.703369   C452.727386,471.449829 450.719849,471.349640 448.727295,471.349457   C306.914917,471.337219 165.102509,471.341248 23.290121,471.354340   C20.793392,471.354584 18.277756,471.312653 15.804549,471.590027   C12.407608,471.971008 11.835601,470.358337 12.148611,467.438080   C13.405351,455.713470 14.347082,443.951691 15.807894,432.253906   C16.436298,427.221832 18.253992,422.350159 19.166655,417.339172   C20.911518,407.758942 21.993576,398.041321 24.115294,388.551666   C25.790150,381.060730 28.720322,373.858063 30.888573,366.467438   C32.725750,360.205292 34.103737,353.806854 35.994179,347.562378   C37.662479,342.051666 39.658875,336.632843 41.691475,331.241730   C43.938461,325.282013 46.373016,319.392456 48.760685,313.486450   C50.543465,309.076630 52.243774,304.625702 54.232391,300.308960   C56.364883,295.679901 58.791706,291.186432 61.192532,286.271423  z"
   id="path88"
   style="fill:#000000" />
<path
   fill="#74A9DB"
   opacity="1.000000"
   stroke="none"
   d=" M441.507935,988.334900   C440.158173,988.076172 439.269226,987.871887 438.187683,987.843872   C437.580536,987.974304 437.165924,987.928528 436.275421,987.542603   C428.601868,983.286560 420.912720,982.848816 413.001770,983.980713   C412.244293,983.942383 411.486816,983.903992 410.350189,983.838013   C406.577484,978.950378 401.001862,980.557617 396.413330,979.244568   C392.813629,978.214539 389.195587,977.248474 385.593353,976.227173   C385.124054,976.094055 384.722198,975.697388 384.251984,975.597229   C376.917480,974.035156 369.540588,972.653870 362.249054,970.914246   C356.384216,969.515015 350.620850,967.690491 344.409119,966.027466   C344.005798,966.000366 344.025116,966.016663 343.927795,965.694275   C342.220337,964.914612 340.610168,964.457336 339.000000,964.000122   C338.587189,963.936279 338.174347,963.872498 337.452637,963.756592   C330.545013,960.774963 323.983765,957.756470 317.333160,954.949768   C313.474335,953.321228 309.471893,952.032959 305.268066,950.777588   C304.604675,950.912292 304.207275,950.860901 303.357178,950.475830   C300.890778,948.451172 299.751740,944.855896 295.991730,946.966919   C295.205566,946.705383 294.419403,946.443909 293.270721,945.740234   C291.270599,944.525085 289.632965,943.752075 287.995331,942.979126   C287.192902,942.730774 286.390472,942.482483 285.210754,941.779053   C280.492554,938.838196 276.232422,936.194519 271.783905,933.919189   C268.547516,932.263916 265.062195,931.095337 261.687897,929.709778   C261.321472,929.546082 260.955017,929.382446 260.246765,928.743042   C258.165771,927.386475 256.426605,926.505554 254.687439,925.624634   C254.315628,925.483765 253.943787,925.342957 253.214630,924.797974   C252.220612,923.951599 251.583908,923.509460 250.947205,923.067261   C250.219040,922.699524 249.490845,922.331787 248.338226,921.578735   C245.827820,920.036987 243.741882,918.880615 241.655945,917.724182   C241.271942,917.578369 240.887955,917.432495 240.152069,916.832520   C237.447647,915.059448 235.095108,913.740540 232.742554,912.421692   C231.376419,911.358459 230.010300,910.295227 228.268631,908.752869   C226.487274,907.386108 225.081436,906.498474 223.675598,905.610840   C221.962555,904.543213 220.249542,903.475525 218.193924,901.861694   C214.824036,899.340088 211.796722,897.364685 208.769409,895.389282   C208.769409,895.389282 208.687485,895.323608 208.665985,894.933533   C206.717941,893.422729 204.791428,892.302002 202.864899,891.181274   C202.864899,891.181274 202.862854,891.139526 202.808350,890.826355   C202.134781,890.056702 201.515732,889.600281 200.896683,889.143860   C197.786728,886.539795 194.676788,883.935730 191.188721,880.849976   C187.570007,877.884583 184.329437,875.400879 181.088867,872.917114   C180.264297,872.355530 179.439743,871.793945 178.323700,870.726135   C176.034836,868.467407 174.037460,866.714844 172.040070,864.962341   C171.084595,864.188232 170.129120,863.414124 168.980057,862.057983   C167.786362,860.749573 166.786255,860.023193 165.786133,859.296814   C165.786133,859.296814 165.471344,859.084595 165.271729,858.629639   C163.962860,857.250732 162.853607,856.326843 161.744370,855.402832   C161.474243,855.162781 161.204117,854.922668 160.786438,854.137695   C159.679886,852.843445 158.720871,852.094055 157.761841,851.344727   C156.317047,850.051819 154.872284,848.758911 153.186981,846.877808   C151.326370,844.822876 149.706284,843.356079 148.086197,841.889343   C148.086197,841.889343 147.856186,841.572266 147.771896,841.067993   C146.716492,839.830078 145.745377,839.096375 144.774261,838.362671   C144.774246,838.362732 144.705200,838.297363 144.671387,837.951294   C144.062943,837.101624 143.488312,836.598022 142.913666,836.094421   C141.089966,834.224854 139.266266,832.355347 137.137695,829.921387   C135.250015,827.869995 133.667221,826.382996 132.084427,824.895935   C131.528137,824.072754 130.971863,823.249573 130.170746,821.845093   C126.293709,817.165405 122.661491,813.066895 119.029266,808.968445   C118.471222,808.142639 117.913177,807.316772 117.111336,805.951660   C116.243126,804.944153 115.618721,804.476013 114.994308,804.007812   C114.994316,804.007812 114.772377,803.637390 114.695419,803.136963   C114.055313,802.118469 113.492172,801.600464 112.929024,801.082458   C112.929024,801.082458 112.987839,801.007324 112.897003,800.689941   C108.914787,795.207092 105.023407,790.041565 101.132050,784.876038   C99.952774,783.239502 98.773476,781.602966 97.529831,779.351868   C96.893806,778.271973 96.322151,777.806702 95.750488,777.341431   C94.167732,775.158142 92.584984,772.974792 90.877739,770.142883   C87.049904,763.098206 83.459526,756.632690 79.594116,750.336060   C77.746010,747.325562 75.376259,744.635254 73.242767,741.799927   C73.062599,741.169312 72.882439,740.538757 72.661636,739.282532   C72.088188,738.097412 71.555389,737.537903 71.022583,736.978455   C70.534050,736.287781 70.045517,735.597046 69.510178,734.251221   C67.329254,728.981018 65.181160,724.372437 63.064201,719.749512   C59.568489,712.115662 56.141567,704.449890 52.593773,696.840454   C49.606953,690.434143 46.489353,684.088745 43.429657,677.716431   C43.369656,677.333618 43.309650,676.950806 43.370819,676.015381   C42.485634,672.475037 41.668861,669.405457 40.423351,666.521057   C38.972462,663.161133 37.146515,659.963135 35.483311,656.694885   C35.387081,656.019653 35.290859,655.344482 35.334465,654.048889   C34.131508,650.521545 32.788719,647.614563 31.445927,644.707581   C31.336380,643.719299 31.226841,642.731018 31.274897,641.070312   C32.357552,635.969849 30.466534,632.625732 27.336855,629.758484   C27.205990,629.048645 27.075119,628.338867 27.036291,627.093079   C26.758051,625.366638 26.387770,624.176086 26.017485,622.985596   C25.974398,622.538330 25.931314,622.091125 26.025452,621.104004   C25.128878,618.361023 24.095079,616.157898 23.061279,613.954712   C23.035353,613.215759 23.009426,612.476868 23.133133,611.157959   C22.996304,609.639282 22.709841,608.700562 22.423378,607.761841   C22.362005,607.367493 22.300632,606.973083 22.395306,605.979248   C21.423214,601.882202 20.295076,598.384521 19.166939,594.886902   C19.130922,594.467163 19.094908,594.047424 19.222179,593.019043   C19.033833,590.540527 18.682199,588.670593 18.330566,586.800659   C18.289837,586.391724 18.249105,585.982849 18.182308,585.266479   C18.043274,581.735046 18.241709,578.460449 17.728649,575.301392   C17.228172,572.219910 16.000517,569.256531 14.862083,565.995605   C14.462988,563.126038 14.293913,560.502014 14.331315,557.093506   C14.486218,552.507141 14.647409,548.687317 14.327184,544.908264   C13.958307,540.555054 15.249317,538.996399 19.499132,539.301270   C22.814671,539.539124 26.138739,539.807007 29.459064,539.807617   C169.117615,539.833740 308.776184,539.831421 448.434723,539.830627   C450.934509,539.830627 453.437561,539.882751 455.933472,539.777161   C462.872711,539.483826 463.032532,539.624634 463.032501,546.861328   C463.031799,690.519653 463.032990,834.177979 463.034546,977.836304   C463.034637,986.748413 463.037537,986.748413 455.005493,988.898682   C450.659912,988.728882 446.314301,988.559082 441.507935,988.334900  z"
   id="path89"
   style="fill:#000000" />
<path
   fill="#537A9E"
   opacity="1.000000"
   stroke="none"
   d=" M455.312653,989.149841   C463.037537,986.748413 463.034637,986.748413 463.034546,977.836304   C463.032990,834.177979 463.031799,690.519653 463.032501,546.861328   C463.032532,539.624634 462.872711,539.483826 455.933472,539.777161   C453.437561,539.882751 450.934509,539.830627 448.434723,539.830627   C308.776184,539.831421 169.117615,539.833740 29.459064,539.807617   C26.138739,539.807007 22.814671,539.539124 19.499132,539.301270   C15.249317,538.996399 13.958307,540.555054 14.327184,544.908264   C14.647409,548.687317 14.486218,552.507141 14.320353,556.651001   C13.136792,552.137024 11.669514,547.301208 11.473279,542.414246   C11.403519,540.677063 14.177978,538.451782 16.122473,537.147827   C17.287786,536.366272 19.359406,536.903442 21.023691,536.903320   C165.946777,536.894287 310.869843,536.890930 455.792938,536.885925   C464.334381,536.885620 464.968262,537.474976 464.968872,545.881104   C464.979614,691.303894 464.984558,836.726746 464.984192,982.149536   C464.984161,989.924805 463.369598,991.153687 455.312653,989.149841  z"
   id="path90"
   style="fill:#000000" />
<path
   fill="#507292"
   opacity="1.000000"
   stroke="none"
   d=" M541.386108,474.809753   C542.553833,474.531281 544.136536,474.348267 545.872986,474.439514   C544.618225,474.777618 543.209595,474.841400 541.386108,474.809753  z"
   id="path91"
   style="fill:#000000" />
<path
   fill="#547697"
   opacity="1.000000"
   stroke="none"
   d=" M43.363747,678.100220   C46.489353,684.088745 49.606953,690.434143 52.593773,696.840454   C56.141567,704.449890 59.568489,712.115662 63.064201,719.749512   C65.181160,724.372437 67.329254,728.981018 69.369080,733.965454   C63.258614,722.279907 57.075195,710.304382 51.294609,698.137512   C48.264416,691.759583 45.940651,685.046021 43.363747,678.100220  z"
   id="path92"
   style="fill:#000000" />
<path
   fill="#547697"
   opacity="1.000000"
   stroke="none"
   d=" M73.228424,742.160645   C75.376259,744.635254 77.746010,747.325562 79.594116,750.336060   C83.459526,756.632690 87.049904,763.098206 90.678604,769.871582   C84.807343,761.006287 79.010704,751.763855 73.228424,742.160645  z"
   id="path93"
   style="fill:#000000" />
<path
   fill="#547697"
   opacity="1.000000"
   stroke="none"
   d=" M261.890747,929.947876   C265.062195,931.095337 268.547516,932.263916 271.783905,933.919189   C276.232422,936.194519 280.492554,938.838196 284.916931,941.664062   C277.364777,938.064819 269.729187,934.125427 261.890747,929.947876  z"
   id="path94"
   style="fill:#000000" />
<path
   fill="#547697"
   opacity="1.000000"
   stroke="none"
   d=" M35.417461,657.077332   C37.146515,659.963135 38.972462,663.161133 40.423351,666.521057   C41.668861,669.405457 42.485634,672.475037 43.316910,675.729736   C40.545086,669.817810 37.948345,663.638794 35.417461,657.077332  z"
   id="path95"
   style="fill:#000000" />
<path
   fill="#547697"
   opacity="1.000000"
   stroke="none"
   d=" M101.148102,785.235596   C105.023407,790.041565 108.914787,795.207092 112.861710,800.722351   C108.999565,795.913086 105.081871,790.754089 101.148102,785.235596  z"
   id="path96"
   style="fill:#000000" />
<path
   fill="#547697"
   opacity="1.000000"
   stroke="none"
   d=" M119.062759,809.314941   C122.661491,813.066895 126.293709,817.165405 129.990417,821.605591   C126.402016,817.852051 122.749130,813.756714 119.062759,809.314941  z"
   id="path97"
   style="fill:#000000" />
<path
   fill="#547697"
   opacity="1.000000"
   stroke="none"
   d=" M27.259174,630.151306   C30.466534,632.625732 32.357552,635.969849 31.237957,640.699280   C29.756113,637.515137 28.468805,634.029602 27.259174,630.151306  z"
   id="path98"
   style="fill:#000000" />
<path
   fill="#537A9E"
   opacity="1.000000"
   stroke="none"
   d=" M19.088730,595.293945   C20.295076,598.384521 21.423214,601.882202 22.355135,605.682617   C21.109453,602.557312 20.059988,599.129211 19.088730,595.293945  z"
   id="path99"
   style="fill:#000000" />
<path
   fill="#547697"
   opacity="1.000000"
   stroke="none"
   d=" M181.115677,873.262573   C184.329437,875.400879 187.570007,877.884583 190.901047,880.687927   C187.708496,878.541016 184.425491,876.074524 181.115677,873.262573  z"
   id="path100"
   style="fill:#000000" />
<path
   fill="#547697"
   opacity="1.000000"
   stroke="none"
   d=" M208.887695,895.689087   C211.796722,897.364685 214.824036,899.340088 217.952698,901.630005   C215.038040,899.959290 212.022018,897.974121 208.887695,895.689087  z"
   id="path101"
   style="fill:#000000" />
<path
   fill="#547697"
   opacity="1.000000"
   stroke="none"
   d=" M31.375896,645.079346   C32.788719,647.614563 34.131508,650.521545 35.288658,653.710938   C33.837296,651.145996 32.571579,648.298584 31.375896,645.079346  z"
   id="path102"
   style="fill:#000000" />
<path
   fill="#547697"
   opacity="1.000000"
   stroke="none"
   d=" M296.209717,947.226685   C299.751740,944.855896 300.890778,948.451172 303.060364,950.428162   C300.953369,949.638306 298.690521,948.562378 296.209717,947.226685  z"
   id="path103"
   style="fill:#000000" />
<path
   fill="#547697"
   opacity="1.000000"
   stroke="none"
   d=" M241.814407,917.989258   C243.741882,918.880615 245.827820,920.036987 248.038727,921.500244   C246.100067,920.622803 244.036469,919.438538 241.814407,917.989258  z"
   id="path104"
   style="fill:#000000" />
<path
   fill="#547697"
   opacity="1.000000"
   stroke="none"
   d=" M232.909439,912.695496   C235.095108,913.740540 237.447647,915.059448 239.864410,916.722351   C237.644516,915.700623 235.360413,914.334961 232.909439,912.695496  z"
   id="path105"
   style="fill:#000000" />
<path
   fill="#547697"
   opacity="1.000000"
   stroke="none"
   d=" M172.079651,865.299255   C174.037460,866.714844 176.034836,868.467407 178.069611,870.567749   C176.111069,869.155762 174.115143,867.395996 172.079651,865.299255  z"
   id="path106"
   style="fill:#000000" />
<path
   fill="#537A9E"
   opacity="1.000000"
   stroke="none"
   d=" M23.024904,614.316406   C24.095079,616.157898 25.128878,618.361023 25.917873,620.784180   C24.778221,618.895508 23.883373,616.786865 23.024904,614.316406  z"
   id="path107"
   style="fill:#000000" />
<path
   fill="#547697"
   opacity="1.000000"
   stroke="none"
   d=" M288.170624,943.266724   C289.632965,943.752075 291.270599,944.525085 292.983276,945.620544   C291.487518,945.146790 289.916718,944.350525 288.170624,943.266724  z"
   id="path108"
   style="fill:#000000" />
<path
   fill="#547697"
   opacity="1.000000"
   stroke="none"
   d=" M254.864105,925.878906   C256.426605,926.505554 258.165771,927.386475 259.975037,928.613403   C258.377045,928.017334 256.708923,927.075256 254.864105,925.878906  z"
   id="path109"
   style="fill:#000000" />
<path
   fill="#547697"
   opacity="1.000000"
   stroke="none"
   d=" M202.981979,891.486145   C204.791428,892.302002 206.717941,893.422729 208.628906,894.896362   C206.775238,894.096558 204.937149,892.943787 202.981979,891.486145  z"
   id="path110"
   style="fill:#000000" />
<path
   fill="#547697"
   opacity="1.000000"
   stroke="none"
   d=" M148.184448,842.205261   C149.706284,843.356079 151.326370,844.822876 152.959778,846.647461   C151.409653,845.510559 149.846176,844.015869 148.184448,842.205261  z"
   id="path111"
   style="fill:#000000" />
<path
   fill="#537A9E"
   opacity="1.000000"
   stroke="none"
   d=" M18.225571,587.200989   C18.682199,588.670593 19.033833,590.540527 19.193430,592.704407   C18.707787,591.199341 18.414181,589.400330 18.225571,587.200989  z"
   id="path112"
   style="fill:#000000" />
<path
   fill="#547697"
   opacity="1.000000"
   stroke="none"
   d=" M132.196167,825.210388   C133.667221,826.382996 135.250015,827.869995 136.885315,829.708740   C135.394501,828.548584 133.851196,827.036743 132.196167,825.210388  z"
   id="path113"
   style="fill:#000000" />
<path
   fill="#547697"
   opacity="1.000000"
   stroke="none"
   d=" M223.815125,905.887146   C225.081436,906.498474 226.487274,907.386108 227.980682,908.603088   C226.697052,908.009460 225.325836,907.086487 223.815125,905.887146  z"
   id="path114"
   style="fill:#000000" />
<path
   fill="#547697"
   opacity="1.000000"
   stroke="none"
   d=" M25.937471,623.331421   C26.387770,624.176086 26.758051,625.366638 26.878487,626.768066   C26.371580,625.878418 26.114517,624.777832 25.937471,623.331421  z"
   id="path115"
   style="fill:#000000" />
<path
   fill="#547697"
   opacity="1.000000"
   stroke="none"
   d=" M161.850098,855.693848   C162.853607,856.326843 163.962860,857.250732 165.116882,858.519897   C164.093048,857.905029 163.024429,856.944946 161.850098,855.693848  z"
   id="path116"
   style="fill:#000000" />
<path
   fill="#547697"
   opacity="1.000000"
   stroke="none"
   d=" M165.891922,859.585815   C166.786255,860.023193 167.786362,860.749573 168.782120,861.822144   C167.851074,861.403809 166.924377,860.639282 165.891922,859.585815  z"
   id="path117"
   style="fill:#000000" />
<path
   fill="#547697"
   opacity="1.000000"
   stroke="none"
   d=" M157.859787,851.629700   C158.720871,852.094055 159.679886,852.843445 160.603302,853.937622   C159.697739,853.493225 158.827728,852.703979 157.859787,851.629700  z"
   id="path118"
   style="fill:#000000" />
<path
   fill="#547697"
   opacity="1.000000"
   stroke="none"
   d=" M144.873032,838.646851   C145.745377,839.096375 146.716492,839.830078 147.659149,840.907837   C146.744385,840.478333 145.858093,839.704712 144.873032,838.646851  z"
   id="path119"
   style="fill:#000000" />
<path
   fill="#537A9E"
   opacity="1.000000"
   stroke="none"
   d=" M22.319513,608.093994   C22.709841,608.700562 22.996304,609.639282 23.101963,610.789490   C22.685989,610.142700 22.450821,609.284485 22.319513,608.093994  z"
   id="path120"
   style="fill:#000000" />
<path
   fill="#547697"
   opacity="1.000000"
   stroke="none"
   d=" M251.017578,923.368652   C251.583908,923.509460 252.220612,923.951599 252.935760,924.692383   C252.372116,924.550720 251.730042,924.110352 251.017578,923.368652  z"
   id="path121"
   style="fill:#000000" />
<path
   fill="#547697"
   opacity="1.000000"
   stroke="none"
   d=" M200.978546,889.427612   C201.515732,889.600281 202.134781,890.056702 202.787445,890.825867   C202.234177,890.662842 201.647293,890.187073 200.978546,889.427612  z"
   id="path122"
   style="fill:#000000" />
<path
   fill="#547697"
   opacity="1.000000"
   stroke="none"
   d=" M142.955460,836.387939   C143.488312,836.598022 144.062943,837.101624 144.639771,837.915771   C144.093704,837.711426 143.545486,837.196472 142.955460,836.387939  z"
   id="path123"
   style="fill:#000000" />
<path
   fill="#547697"
   opacity="1.000000"
   stroke="none"
   d=" M115.046234,804.314819   C115.618721,804.476013 116.243126,804.944153 116.925842,805.715698   C116.355492,805.553284 115.726822,805.087524 115.046234,804.314819  z"
   id="path124"
   style="fill:#000000" />
<path
   fill="#547697"
   opacity="1.000000"
   stroke="none"
   d=" M112.982948,801.365356   C113.492172,801.600464 114.055313,802.118469 114.586571,802.950439   C114.048752,802.725647 113.542809,802.186951 112.982948,801.365356  z"
   id="path125"
   style="fill:#000000" />
<path
   fill="#547697"
   opacity="1.000000"
   stroke="none"
   d=" M95.811996,777.598938   C96.322151,777.806702 96.893806,778.271973 97.373665,779.045776   C96.812401,778.854980 96.342949,778.355713 95.811996,777.598938  z"
   id="path126"
   style="fill:#000000" />
<path
   fill="#547697"
   opacity="1.000000"
   stroke="none"
   d=" M71.042664,737.270020   C71.555389,737.537903 72.088188,738.097412 72.557327,738.971558   C72.016693,738.711304 71.539719,738.136414 71.042664,737.270020  z"
   id="path127"
   style="fill:#000000" />
<path
   fill="#74A9DB"
   opacity="1.000000"
   stroke="none"
   d=" M343.774414,966.384949   C343.558716,966.462830 343.397980,966.356567 343.398254,966.157288   C343.538544,966.095642 344.025116,966.016663 344.025116,966.016663   C344.025116,966.016663 344.005798,966.000366 343.999634,965.989685   C343.993439,965.979004 343.808746,966.232117 343.774414,966.384949  z"
   id="path128"
   style="fill:#000000" />
<path
   fill="#507292"
   opacity="1.000000"
   stroke="none"
   d=" M550.358765,12.405422   C549.787476,12.425289 549.037781,12.190418 548.123779,11.707075   C548.699768,11.689298 549.440002,11.919991 550.358765,12.405422  z"
   id="path129"
   style="fill:#000000" />
<path
   fill="#537A9E"
   opacity="1.000000"
   stroke="none"
   d=" M413.331543,984.199219   C420.912720,982.848816 428.601868,983.286560 435.965027,987.503418   C428.640808,986.675598 421.151062,985.546692 413.331543,984.199219  z"
   id="path130"
   inkscape:label="path130"
   style="fill:#000000" />
<path
   fill="#537A9E"
   opacity="1.000000"
   stroke="none"
   d=" M343.927795,965.694275   C344.025116,966.016663 343.538544,966.095642 343.296295,966.052002   C341.841431,965.507263 340.628784,965.006165 339.208069,964.252563   C340.610168,964.457336 342.220337,964.914612 343.927795,965.694275  z"
   id="path131"
   inkscape:label="path131"
   style="fill:#000000" />
</svg>
